<svg width="328" height="208" viewBox="0 0 328 208" fill="none" xmlns="http://www.w3.org/2000/svg">
<path d="M297.204 0.513794H39.1794C22.2168 0.513794 8.46597 14.274 8.46597 31.2481V176.211C8.46597 193.185 22.2168 206.946 39.1794 206.946H297.204C314.166 206.946 327.917 193.185 327.917 176.211V31.2481C327.917 14.274 314.166 0.513794 297.204 0.513794Z" fill="white"/>
<path opacity="0.2" d="M25.498 78.2424H310.874" stroke="#1D2125" stroke-width="0.330601" stroke-dasharray="1.32 1.98"/>
<path opacity="0.2" d="M25.498 95.0306H310.874" stroke="#1D2125" stroke-width="0.330601" stroke-dasharray="1.32 1.98"/>
<path opacity="0.2" d="M25.498 111.824H310.874" stroke="#1D2125" stroke-width="0.330601" stroke-dasharray="1.32 1.98"/>
<path opacity="0.2" d="M25.498 128.613H310.874" stroke="#1D2125" stroke-width="0.330601" stroke-dasharray="1.32 1.98"/>
<path opacity="0.2" d="M25.498 145.402H310.874" stroke="#1D2125" stroke-width="0.330601" stroke-dasharray="1.32 1.98"/>
<path opacity="0.2" d="M25.498 162.191H310.874" stroke="#1D2125" stroke-width="0.330601" stroke-dasharray="1.32 1.98"/>
<path opacity="0.2" d="M25.498 178.98H310.874" stroke="#1D2125" stroke-width="0.330601" stroke-dasharray="1.32 1.98"/>
<path opacity="0.2" d="M25.498 195.769H310.874" stroke="#1D2125" stroke-width="0.330601" stroke-dasharray="1.32 1.98"/>
<path d="M0.965393 136.612V207.444H327.917V76.636C321.888 75.1479 315.827 74.7261 309.581 76.1761C302.82 78.054 295.807 82.3841 288.664 86.7953C281.038 91.5031 273.264 96.3042 265.49 98.3084C257.952 100.192 250.102 98.9167 242.277 97.645C235.588 96.5567 228.916 95.4725 222.473 96.3673C208.539 98.1641 195.524 107.612 181.727 117.63C180.617 118.435 179.503 119.244 178.382 120.053C177.066 121.003 175.758 121.954 174.457 122.899C160.874 132.769 148.03 142.103 134.291 145.292C120.311 149.175 105.255 145.292 91.2749 139.855C87.769 138.59 84.3211 137.219 80.9053 135.86C69.6504 131.384 58.733 127.042 47.1837 127.042C38.5685 127.042 30.3048 129.458 21.9911 131.889C15.7763 133.705 9.53248 135.53 3.09138 136.361C2.38538 136.459 1.6764 136.542 0.965393 136.612Z" fill="url(#paint0_linear_0_242)"/>
<path d="M327.917 117.406V207.445H0.965393V113.171C4.37821 112.455 7.82108 112.048 11.312 112.048C21.5314 112.048 32.2276 116.091 43.1109 120.204C50.1919 122.881 57.352 125.587 64.5122 127.23C75 129.821 85.9905 129.765 96.8578 129.71C103.468 129.677 110.034 129.644 116.414 130.207C133.182 131.305 148.844 136.21 165.442 141.406C166.826 141.838 168.217 142.274 169.615 142.709C186.482 148.067 204.649 153.723 222.815 156.701C239.683 159.379 257.849 159.379 274.717 152.235C290.63 146.238 305.547 134.759 315.107 127.401C316.461 126.359 317.708 125.4 318.834 124.551L327.917 117.406Z" fill="url(#paint1_linear_0_242)"/>
<path d="M32.7072 26.5102H39.7241C40.7025 26.5102 41.5818 26.7016 42.3609 27.0844C43.141 27.4512 43.7448 27.9633 44.1724 28.6216C44.616 29.279 44.8374 30.0216 44.8374 30.8473C44.8374 31.6129 44.616 32.3083 44.1724 32.9357C43.7298 33.563 43.164 33.9839 42.476 34.1983V34.4278C43.3012 34.6573 43.9741 35.1152 44.4938 35.8037C45.0286 36.4921 45.296 37.2727 45.296 38.1446C45.296 39.0013 45.0516 39.782 44.5629 40.4854C44.0883 41.1739 43.4313 41.717 42.5902 42.1149C41.75 42.4967 40.7946 42.6881 39.7241 42.6881H32.7072V26.5102ZM39.4718 33.4638C40.4351 33.4638 41.2223 33.2263 41.8341 32.7523C42.461 32.2783 42.7744 31.666 42.7744 30.9164C42.7744 30.1669 42.461 29.5546 41.8341 29.0806C41.2223 28.5906 40.4351 28.3461 39.4718 28.3461H34.7942V33.4638H39.4718ZM39.4257 40.8522C40.5423 40.8522 41.4516 40.5847 42.1545 40.0495C42.8736 39.5144 43.2331 38.841 43.2331 38.0303C43.2331 37.2347 42.8736 36.5843 42.1545 36.0792C41.4516 35.5592 40.5423 35.2996 39.4257 35.2996H34.7942V40.8522H39.4257ZM53.9252 43.147C52.7325 43.147 51.662 42.8724 50.7146 42.3213C49.7663 41.7701 49.0252 41.0136 48.4905 40.0495C47.9547 39.0705 47.6874 37.9692 47.6874 36.7446C47.6874 35.5822 47.9477 34.542 48.4675 33.6241C49.0022 32.6911 49.7363 31.9646 50.6686 31.4445C51.6009 30.9084 52.6564 30.6409 53.8331 30.6409C54.9947 30.6409 56.0342 30.9084 56.9514 31.4445C57.8848 31.9646 58.6108 32.6911 59.1305 33.6241C59.6503 34.542 59.9106 35.5902 59.9106 36.7677C59.9106 37.1044 59.9026 37.3569 59.8876 37.5253H49.6371C49.7743 38.7027 50.233 39.6517 51.0131 40.3702C51.8072 41.0747 52.7936 41.4264 53.9713 41.4264C54.8265 41.4264 55.6066 41.227 56.3095 40.8292C57.0286 40.4163 57.5713 39.8662 57.9379 39.1777L59.5201 39.9804C59.0464 40.9745 58.3124 41.7551 57.319 42.3213C56.3406 42.8724 55.209 43.147 53.9252 43.147ZM57.9148 35.8498C57.7466 34.7946 57.2809 33.9528 56.5158 33.3255C55.7668 32.6831 54.8425 32.3625 53.7419 32.3625C52.6714 32.3625 51.7621 32.6831 51.0131 33.3255C50.279 33.9688 49.8274 34.8096 49.6592 35.8498H57.9148ZM66.0733 43.0558C64.8196 43.0558 63.8111 42.7572 63.0461 42.161C62.297 41.5487 61.9225 40.745 61.9225 39.7509C61.9225 38.7107 62.3661 37.8389 63.2524 37.1355C64.1396 36.431 65.4234 35.988 67.1058 35.8037L70.3153 35.4138V34.9549C70.3153 34.1753 70.0479 33.555 69.5132 33.096C68.9784 32.622 68.2364 32.3845 67.289 32.3845C66.4018 32.3845 65.6988 32.5919 65.1791 33.0048C64.6593 33.4026 64.407 33.9608 64.422 34.6793H62.4963C62.4963 33.4558 62.9319 32.4847 63.8031 31.7652C64.6744 31.0307 65.844 30.6639 67.3121 30.6639C68.8102 30.6639 70.0029 31.0617 70.8891 31.8574C71.7754 32.637 72.219 33.6852 72.219 35.001V42.6881H70.3153V40.9905H70.109C69.2528 42.3674 67.9079 43.0558 66.0733 43.0558ZM66.3487 41.4725C67.1278 41.4725 67.8158 41.3272 68.4126 41.0366C69.0085 40.745 69.4751 40.3401 69.8116 39.8201C70.1481 39.3 70.3153 38.7188 70.3153 38.0764V37.0432L67.1058 37.41C65.9742 37.5483 65.141 37.8239 64.6063 38.2368C64.0855 38.6346 63.8262 39.1236 63.8262 39.7048C63.8262 40.256 64.0475 40.6919 64.4911 41.0136C64.9498 41.3192 65.5686 41.4725 66.3487 41.4725ZM75.5157 31.0998H77.3723V32.6601H77.5796C77.8389 32.14 78.2595 31.7121 78.8404 31.3754C79.4212 31.0387 80.033 30.8703 80.675 30.8703C81.2558 30.8703 81.7295 30.9695 82.097 31.169V32.9357C81.5612 32.7062 80.9884 32.5919 80.3765 32.5919C79.5053 32.5919 78.7943 32.9507 78.2445 33.6702C77.6937 34.3737 77.4184 35.2996 77.4184 36.447V42.6881H75.5157V31.0998ZM89.5044 43.147C88.3879 43.147 87.3714 42.8795 86.4541 42.3443C85.5368 41.7932 84.8108 41.0436 84.276 40.0956C83.7563 39.1467 83.496 38.0764 83.496 36.8829C83.496 35.6894 83.7563 34.6182 84.276 33.6702C84.7958 32.7212 85.5138 31.9797 86.4311 31.4445C87.3484 30.9084 88.3648 30.6409 89.4814 30.6409C90.4137 30.6409 91.2469 30.8323 91.9809 31.2151C92.715 31.5818 93.2958 32.1169 93.7234 32.8214H93.9527V25.8218H95.8564V42.6881H93.9527V40.8983H93.7234C93.2958 41.6178 92.715 42.176 91.9809 42.5738C91.2619 42.9556 90.4368 43.147 89.5044 43.147ZM89.7107 41.4264C90.5209 41.4264 91.2469 41.227 91.8888 40.8292C92.5467 40.4323 93.0584 39.8892 93.426 39.2008C93.8075 38.4963 93.9988 37.7237 93.9988 36.8829C93.9988 36.0411 93.8155 35.2766 93.448 34.5881C93.0815 33.8997 92.5698 33.3565 91.9118 32.9587C91.2549 32.5609 90.5209 32.3625 89.7107 32.3625C88.8856 32.3625 88.1435 32.5609 87.4866 32.9587C86.8437 33.3565 86.3319 33.8997 85.9494 34.5881C85.5829 35.2766 85.3996 36.0411 85.3996 36.8829C85.3996 37.7397 85.5829 38.5123 85.9494 39.2008C86.3319 39.8892 86.8517 40.4323 87.5096 40.8292C88.1665 41.227 88.9006 41.4264 89.7107 41.4264ZM107.162 43.2623C105.572 43.2623 104.135 42.8945 102.851 42.161C101.583 41.4114 100.588 40.3863 99.8701 39.0855C99.151 37.7698 98.7915 36.2857 98.7915 34.6342C98.7915 32.9818 99.1441 31.4976 99.847 30.1819C100.565 28.8511 101.559 27.8109 102.828 27.0614C104.112 26.3118 105.557 25.937 107.162 25.937C108.354 25.937 109.486 26.1895 110.556 26.6936C111.642 27.1987 112.559 27.9021 113.308 28.805C114.057 29.6929 114.562 30.695 114.821 31.8113L112.78 32.0869C112.582 31.2602 112.208 30.5186 111.657 29.8612C111.106 29.2029 110.434 28.6908 109.639 28.323C108.859 27.9562 108.034 27.7729 107.162 27.7729C105.955 27.7729 104.869 28.0705 103.906 28.6677C102.957 29.2489 102.216 30.0596 101.682 31.0998C101.146 32.125 100.879 33.2874 100.879 34.5881C100.879 35.8878 101.146 37.0583 101.682 38.0985C102.231 39.1396 102.98 39.9573 103.929 40.5546C104.892 41.1358 105.97 41.4264 107.162 41.4264C108.019 41.4264 108.836 41.2501 109.616 40.8983C110.396 40.5315 111.068 40.0345 111.634 39.4072C112.199 38.7649 112.589 38.0534 112.803 37.2727L114.798 37.6625C114.539 38.7338 114.034 39.6978 113.285 40.5546C112.536 41.3954 111.626 42.0607 110.556 42.5508C109.486 43.0248 108.354 43.2623 107.162 43.2623ZM117.773 25.8218H119.677V32.5689H119.906C120.319 31.9566 120.839 31.4826 121.466 31.1459C122.092 30.8092 122.787 30.6409 123.553 30.6409C124.516 30.6409 125.356 30.8623 126.075 31.3063C126.808 31.7352 127.374 32.3394 127.771 33.119C128.169 33.8846 128.368 34.7565 128.368 35.7355V42.6881H126.465V35.7355C126.465 34.7254 126.182 33.9147 125.616 33.3024C125.051 32.6761 124.279 32.3625 123.3 32.3625C122.658 32.3625 122.054 32.5148 121.489 32.8214C120.938 33.1271 120.494 33.555 120.159 34.1061C119.837 34.6412 119.677 35.2455 119.677 35.9189V42.6881H117.773V25.8218ZM132.827 28.8972C132.429 28.8972 132.101 28.7669 131.841 28.5064C131.581 28.2469 131.451 27.9182 131.451 27.5203C131.451 27.1375 131.581 26.8239 131.841 26.5794C132.101 26.3188 132.429 26.1896 132.827 26.1896C133.224 26.1896 133.546 26.3118 133.79 26.5563C134.05 26.8008 134.18 27.1225 134.18 27.5203C134.18 27.9182 134.05 28.2469 133.79 28.5064C133.546 28.7669 133.224 28.8972 132.827 28.8972ZM131.864 31.0998H133.767V42.6881H131.864V31.0998ZM142.915 43.147C141.769 43.147 140.737 42.8795 139.819 42.3443C138.902 41.8092 138.184 41.0667 137.664 40.1187C137.144 39.1697 136.884 38.1065 136.884 36.929C136.884 35.7355 137.137 34.6643 137.641 33.7163C138.161 32.7523 138.879 32.0027 139.796 31.4666C140.714 30.9164 141.753 30.6409 142.915 30.6409C143.848 30.6409 144.719 30.8243 145.53 31.192C146.34 31.5588 147.013 32.0709 147.547 32.7292C148.082 33.3716 148.419 34.0981 148.557 34.9088L146.699 35.1613C146.5 34.3356 146.041 33.6622 145.323 33.1421C144.62 32.622 143.825 32.3625 142.938 32.3625C142.159 32.3625 141.448 32.5529 140.806 32.9357C140.179 33.3185 139.682 33.8536 139.315 34.542C138.963 35.2305 138.788 36.0111 138.788 36.8829C138.788 37.7698 138.963 38.5574 139.315 39.2459C139.682 39.9343 140.179 40.4704 140.806 40.8522C141.433 41.235 142.136 41.4264 142.915 41.4264C143.817 41.4264 144.62 41.1739 145.323 40.6688C146.026 40.1487 146.493 39.4834 146.722 38.6727L148.603 38.9252C148.435 39.7359 148.075 40.4624 147.524 41.1048C146.975 41.7471 146.294 42.2521 145.483 42.6199C144.688 42.9717 143.832 43.147 142.915 43.147ZM151.522 25.8218H153.425V36.0562H153.654L158.608 31.0998H161.131L155.421 36.6534L161.268 42.6881H158.722L153.654 37.2958H153.425V42.6881H151.522V25.8218ZM168.091 43.147C166.899 43.147 165.829 42.8724 164.881 42.3213C163.934 41.7701 163.191 41.0136 162.657 40.0495C162.122 39.0705 161.854 37.9692 161.854 36.7446C161.854 35.5822 162.114 34.542 162.634 33.6241C163.168 32.6911 163.903 31.9646 164.835 31.4445C165.768 30.9084 166.823 30.6409 167.999 30.6409C169.162 30.6409 170.201 30.9084 171.119 31.4445C172.051 31.9646 172.777 32.6911 173.297 33.6241C173.816 34.542 174.077 35.5902 174.077 36.7677C174.077 37.1044 174.069 37.3569 174.054 37.5253H163.803C163.941 38.7027 164.399 39.6517 165.179 40.3702C165.974 41.0747 166.96 41.4264 168.137 41.4264C168.994 41.4264 169.773 41.227 170.477 40.8292C171.195 40.4163 171.738 39.8662 172.104 39.1777L173.687 39.9804C173.213 40.9745 172.479 41.7551 171.485 42.3213C170.507 42.8724 169.375 43.147 168.091 43.147ZM172.082 35.8498C171.914 34.7946 171.447 33.9528 170.683 33.3255C169.934 32.6831 169.009 32.3625 167.908 32.3625C166.838 32.3625 165.928 32.6831 165.179 33.3255C164.445 33.9688 163.995 34.8096 163.826 35.8498H172.082ZM177.007 31.0998H178.91V32.6831H179.139C179.552 32.0408 180.071 31.5438 180.698 31.192C181.325 30.8403 182.021 30.6639 182.785 30.6639C183.749 30.6639 184.59 30.8854 185.308 31.3293C186.042 31.7582 186.608 32.3625 187.005 33.1421C187.403 33.9067 187.601 34.7795 187.601 35.7586V42.6881H185.697V35.7586C185.697 34.7635 185.415 33.9528 184.849 33.3255C184.283 32.6982 183.511 32.3845 182.533 32.3845C181.891 32.3845 181.287 32.5378 180.721 32.8435C180.171 33.1501 179.728 33.578 179.391 34.1292C179.071 34.6643 178.91 35.2615 178.91 35.9189V42.6881H177.007V31.0998Z" fill="black"/>
<path d="M43.6296 62.0435L42.1135 65.9828H42.7524L43.1219 64.9677H44.8153L45.1848 65.9828H45.8297L44.3136 62.0435H43.6296ZM43.3042 64.4716L43.9601 62.6889H43.9821L44.633 64.4716H43.3042ZM46.2263 61.9664V65.9828H46.8101V61.9664H46.2263ZM47.9517 61.9884C47.8356 61.9884 47.7425 62.0215 47.6653 62.0987C47.5882 62.1698 47.5492 62.264 47.5492 62.3802C47.5492 62.4905 47.5882 62.5897 47.6653 62.6668C47.7425 62.739 47.8356 62.7771 47.9517 62.7771C48.0619 62.7771 48.161 62.739 48.2381 62.6668C48.3163 62.5897 48.3603 62.4955 48.3603 62.3802C48.3603 62.264 48.3213 62.1698 48.2442 62.0987C48.1671 62.0215 48.0679 61.9884 47.9517 61.9884ZM47.6593 63.1298V65.9828H48.2442V63.1298H47.6593ZM50.243 63.0526C49.8244 63.0526 49.4929 63.202 49.2556 63.4996C49.0353 63.7762 48.9251 64.1289 48.9251 64.5708C48.9251 64.9897 49.0303 65.3374 49.2506 65.613C49.4819 65.9116 49.8024 66.0599 50.2149 66.0599C50.5624 66.0599 50.8548 65.8946 51.0872 65.5639V67.0761H51.671V63.1298H51.1252V63.4725C50.9269 63.1909 50.6285 63.0526 50.243 63.0526ZM50.3311 63.5276C50.5845 63.5276 50.7777 63.6269 50.9209 63.8313C51.0421 64.0077 51.1032 64.2451 51.1032 64.5377V64.5869C51.1032 64.8905 51.0261 65.139 50.8829 65.3264C50.7397 65.4978 50.5624 65.586 50.3481 65.586C50.0607 65.586 49.8464 65.4918 49.7132 65.3044C49.587 65.128 49.526 64.8855 49.526 64.5708C49.526 64.2562 49.581 64.0137 49.6972 63.8363C49.8294 63.6269 50.0447 63.5276 50.3311 63.5276ZM52.3309 63.1298V64.9075C52.3309 65.6741 52.6734 66.0599 53.3624 66.0599C53.7209 66.0599 54.0183 65.9056 54.2607 65.597V65.9828H54.8455V63.1298H54.2607V64.8745C54.2116 65.0839 54.1174 65.2553 53.9852 65.3815C53.8531 65.5028 53.7149 65.5689 53.5607 65.5689C53.3343 65.5689 53.1691 65.5088 53.07 65.3986C52.9648 65.2883 52.9157 65.111 52.9157 64.8685V63.1298H52.3309ZM56.7982 63.0526C56.4457 63.0526 56.1593 63.1138 55.9491 63.2461C55.7067 63.3894 55.5525 63.6218 55.4914 63.9305L56.0702 63.9806C56.1032 63.8202 56.1864 63.704 56.3186 63.6268C56.4287 63.5607 56.5779 63.5276 56.7602 63.5276C57.1898 63.5276 57.4051 63.7261 57.4051 64.1239V64.2391L56.7652 64.2562C56.3466 64.2672 56.0151 64.3493 55.7838 64.5157C55.5305 64.6861 55.4033 64.9346 55.4033 65.2553C55.4033 65.4917 55.4914 65.6852 55.6736 65.8345C55.8389 65.9828 56.0702 66.0599 56.3686 66.0599C56.622 66.0599 56.8423 66.0108 57.0306 65.9227C57.1958 65.8395 57.333 65.7242 57.4441 65.5799V65.9828H57.9839V64.162C57.9839 63.8142 57.8958 63.5497 57.7245 63.3673C57.5263 63.1579 57.2178 63.0526 56.7982 63.0526ZM57.4051 64.664V64.8304C57.4051 65.0508 57.311 65.2382 57.1347 65.3875C56.9585 65.5358 56.7492 65.613 56.5008 65.613C56.3516 65.613 56.2304 65.5749 56.1423 65.5028C56.0482 65.4316 56.0041 65.3434 56.0041 65.2332C56.0041 64.8795 56.2695 64.6921 56.8042 64.6811L57.4051 64.664ZM60.0208 63.0526C59.7344 63.0526 59.469 63.1799 59.2377 63.4445V63.1298H58.6529V65.9828H59.2377V64.2672C59.2377 64.0688 59.2928 63.8974 59.4139 63.7591C59.5241 63.6158 59.6793 63.5437 59.8666 63.5437C60.2521 63.5437 60.4514 63.7651 60.4514 64.2171V65.9828H61.0352V64.2281C61.0352 64.0187 61.0903 63.8473 61.2005 63.726C61.3116 63.6048 61.4438 63.5437 61.609 63.5437C61.8293 63.5437 61.9946 63.5938 62.0937 63.704C62.1939 63.8092 62.2429 63.9806 62.2429 64.2121V65.9828H62.8278V64.1129C62.8278 63.7922 62.7286 63.5387 62.5413 63.3453C62.3481 63.1468 62.1057 63.0526 61.8133 63.0526C61.6201 63.0526 61.4598 63.0857 61.3276 63.1579C61.1844 63.23 61.0462 63.3563 60.9201 63.5327C60.7428 63.213 60.4404 63.0526 60.0208 63.0526Z" fill="#A82CD0"/>
<path d="M37.1494 63.8332C37.1494 62.0047 35.6681 60.5223 33.8408 60.5223C32.0135 60.5223 30.5321 62.0047 30.5321 63.8332C30.5321 65.6618 32.0135 67.1441 33.8408 67.1441C35.6681 67.1441 37.1494 65.6618 37.1494 63.8332Z" fill="#A82CD0"/>
<path d="M91.8537 62.0435V65.9828H92.4546V63.1689H92.4766L93.6843 65.9828H94.2031L95.4108 63.1689H95.4328V65.9828H96.0336V62.0435H95.3227L93.9547 65.1992H93.9387L92.5657 62.0435H91.8537ZM98.0655 63.0526C97.6359 63.0526 97.2884 63.197 97.029 63.4836C96.7697 63.7652 96.6425 64.1239 96.6425 64.5598C96.6425 64.9897 96.7697 65.3485 97.0231 65.6241C97.2884 65.9117 97.6359 66.06 98.0655 66.06C98.4961 66.06 98.8426 65.9117 99.108 65.6241C99.3614 65.3485 99.4885 64.9897 99.4885 64.5598C99.4885 64.1239 99.3563 63.7652 99.102 63.4836C98.8426 63.197 98.4961 63.0526 98.0655 63.0526ZM98.0655 63.5327C98.3359 63.5327 98.5452 63.6379 98.6994 63.8533C98.8316 64.0357 98.8987 64.2722 98.8987 64.5598C98.8987 64.8414 98.8316 65.0729 98.6994 65.2603C98.5452 65.4697 98.3359 65.58 98.0655 65.58C97.7951 65.58 97.5858 65.4697 97.4366 65.2603C97.3044 65.0779 97.2444 64.8464 97.2444 64.5598C97.2444 64.2722 97.3044 64.0357 97.4366 63.8533C97.5858 63.6379 97.7951 63.5327 98.0655 63.5327ZM101.367 63.0526C101.191 63.0526 101.036 63.1028 100.904 63.213C100.793 63.2902 100.699 63.4064 100.628 63.5607V63.1298H100.043V65.9828H100.628V64.4716C100.628 64.2231 100.699 64.0187 100.848 63.8643C100.987 63.721 101.146 63.6489 101.323 63.6489C101.455 63.6489 101.593 63.6659 101.737 63.71V63.1248C101.638 63.0747 101.51 63.0526 101.367 63.0526ZM102.095 61.9664V65.9828H102.641V65.6411C102.839 65.9167 103.132 66.06 103.523 66.06C103.943 66.06 104.268 65.9116 104.511 65.613C104.731 65.3374 104.841 64.9787 104.841 64.5428C104.841 64.1239 104.731 63.7762 104.516 63.4996C104.279 63.202 103.959 63.0526 103.551 63.0526C103.198 63.0526 102.911 63.219 102.68 63.5557V61.9664H102.095ZM103.419 63.5276C103.705 63.5276 103.921 63.6218 104.058 63.8203C104.179 63.9856 104.24 64.2281 104.24 64.5428C104.24 64.8574 104.179 65.0999 104.069 65.2773C103.932 65.4807 103.722 65.586 103.435 65.586C103.182 65.586 102.983 65.4808 102.845 65.2823C102.724 65.1 102.663 64.8685 102.663 64.5819V64.5318C102.663 64.2231 102.735 63.9746 102.889 63.7872C103.022 63.6108 103.198 63.5276 103.419 63.5276ZM105.804 61.9884C105.688 61.9884 105.595 62.0215 105.518 62.0987C105.441 62.1698 105.402 62.264 105.402 62.3802C105.402 62.4905 105.441 62.5897 105.518 62.6668C105.595 62.739 105.688 62.7771 105.804 62.7771C105.915 62.7771 106.014 62.739 106.091 62.6668C106.168 62.5897 106.213 62.4955 106.213 62.3802C106.213 62.264 106.174 62.1698 106.097 62.0987C106.02 62.0215 105.921 61.9884 105.804 61.9884ZM105.512 63.1298V65.9828H106.097V63.1298H105.512Z" fill="#D4767F"/>
<path d="M86.5041 63.8332C86.5041 62.0047 85.0228 60.5223 83.1955 60.5223C81.3682 60.5223 79.8869 62.0047 79.8869 63.8332C79.8869 65.6618 81.3682 67.1441 83.1955 67.1441C85.0228 67.1441 86.5041 65.6618 86.5041 63.8332Z" fill="#D4767F"/>
<path d="M135.138 62.0435V65.9828H135.739V63.1689H135.761L136.968 65.9828H137.487L138.695 63.1689H138.717V65.9828H139.318V62.0435H138.607L137.239 65.1992H137.222L135.849 62.0435H135.138ZM141.35 63.0526C140.919 63.0526 140.572 63.197 140.312 63.4836C140.054 63.7652 139.927 64.1239 139.927 64.5598C139.927 64.9897 140.054 65.3485 140.307 65.6241C140.572 65.9117 140.919 66.06 141.35 66.06C141.779 66.06 142.127 65.9117 142.391 65.6241C142.645 65.3485 142.772 64.9897 142.772 64.5598C142.772 64.1239 142.639 63.7652 142.386 63.4836C142.127 63.197 141.779 63.0526 141.35 63.0526ZM141.35 63.5327C141.62 63.5327 141.829 63.6379 141.984 63.8533C142.116 64.0357 142.182 64.2722 142.182 64.5598C142.182 64.8414 142.116 65.0729 141.984 65.2603C141.829 65.4697 141.62 65.58 141.35 65.58C141.079 65.58 140.87 65.4697 140.721 65.2603C140.589 65.0779 140.527 64.8464 140.527 64.5598C140.527 64.2722 140.589 64.0357 140.721 63.8533C140.87 63.6379 141.079 63.5327 141.35 63.5327ZM143.394 61.9664V65.9828H143.978V61.9664H143.394ZM145.913 63.0526C145.495 63.0526 145.158 63.1969 144.916 63.4886C144.661 63.7762 144.54 64.1289 144.54 64.5538C144.54 65.0228 144.672 65.3926 144.938 65.6691C145.18 65.9277 145.517 66.06 145.935 66.06C146.316 66.06 146.63 65.9497 146.878 65.7353C147.077 65.5579 147.204 65.3324 147.27 65.0669H146.685C146.608 65.2332 146.526 65.3595 146.427 65.4366C146.3 65.5308 146.134 65.58 145.93 65.58C145.699 65.58 145.517 65.5028 145.384 65.3595C145.252 65.2102 145.18 64.9957 145.158 64.7191H147.32C147.314 64.2121 147.198 63.8142 146.978 63.5276C146.735 63.208 146.377 63.0526 145.913 63.0526ZM145.93 63.5327C146.393 63.5327 146.652 63.7812 146.707 64.2782H145.169C145.202 64.0357 145.285 63.8533 145.406 63.7261C145.539 63.5938 145.71 63.5327 145.93 63.5327ZM148.882 63.0526C148.541 63.0526 148.259 63.1248 148.044 63.2741C147.83 63.4174 147.725 63.6218 147.725 63.8804C147.725 64.1239 147.835 64.3163 148.055 64.4546C148.188 64.5428 148.425 64.626 148.761 64.7031C149.054 64.7693 149.247 64.8244 149.335 64.8685C149.5 64.9456 149.588 65.0558 149.588 65.1941C149.588 65.4477 149.357 65.58 148.904 65.58C148.684 65.58 148.53 65.5419 148.431 65.4697C148.332 65.3925 148.259 65.2553 148.226 65.0619H147.653C147.72 65.7243 148.138 66.06 148.921 66.06C149.766 66.06 150.19 65.7573 150.19 65.1551C150.19 64.9015 150.074 64.7031 149.848 64.5598C149.693 64.4606 149.451 64.3664 149.126 64.2893C148.838 64.2171 148.651 64.162 148.552 64.1179C148.398 64.0467 148.321 63.9636 148.321 63.8643C148.321 63.7541 148.37 63.6659 148.475 63.6108C148.563 63.5557 148.695 63.5327 148.871 63.5327C149.071 63.5327 149.225 63.5667 149.324 63.6329C149.418 63.693 149.484 63.7982 149.528 63.9525H150.096C150.03 63.3513 149.621 63.0526 148.882 63.0526ZM151.549 62.2089L150.964 62.4514V63.1298H150.436V63.6158H150.964V65.2713C150.964 65.4978 151.014 65.6691 151.124 65.7904C151.235 65.9167 151.417 65.9828 151.659 65.9828H152.128V65.4978H151.753C151.681 65.4978 151.632 65.4757 151.599 65.4427C151.566 65.4036 151.549 65.3485 151.549 65.2713V63.6158H152.2V63.1298H151.549V62.2089ZM153.084 61.9884C152.968 61.9884 152.875 62.0215 152.797 62.0987C152.72 62.1698 152.682 62.264 152.682 62.3802C152.682 62.4905 152.72 62.5897 152.797 62.6668C152.875 62.739 152.968 62.7771 153.084 62.7771C153.194 62.7771 153.294 62.739 153.371 62.6668C153.448 62.5897 153.492 62.4955 153.492 62.3802C153.492 62.264 153.454 62.1698 153.377 62.0987C153.3 62.0215 153.199 61.9884 153.084 61.9884ZM152.792 63.1298V65.9828H153.377V63.1298H152.792ZM155.375 63.0526C154.956 63.0526 154.619 63.1969 154.377 63.4886C154.124 63.7762 154.003 64.1289 154.003 64.5538C154.003 65.0228 154.135 65.3926 154.399 65.6691C154.641 65.9277 154.978 66.06 155.398 66.06C155.778 66.06 156.093 65.9497 156.34 65.7353C156.539 65.5579 156.665 65.3324 156.731 65.0669H156.148C156.07 65.2332 155.987 65.3595 155.888 65.4366C155.761 65.5308 155.596 65.58 155.391 65.58C155.16 65.58 154.978 65.5028 154.846 65.3595C154.714 65.2102 154.641 64.9957 154.619 64.7191H156.781C156.775 64.2121 156.66 63.8142 156.44 63.5276C156.197 63.208 155.838 63.0526 155.375 63.0526ZM155.391 63.5327C155.855 63.5327 156.115 63.7812 156.17 64.2782H154.63C154.663 64.0357 154.747 63.8533 154.868 63.7261C155 63.5938 155.171 63.5327 155.391 63.5327Z" fill="#ED9013"/>
<path d="M129.788 63.8332C129.788 62.0047 128.307 60.5223 126.48 60.5223C124.652 60.5223 123.171 62.0047 123.171 63.8332C123.171 65.6618 124.652 67.1441 126.48 67.1441C128.307 67.1441 129.788 65.6618 129.788 63.8332Z" fill="#ED9013"/>
<path d="M115.996 107.292C117.062 107.292 117.926 106.427 117.926 105.36C117.926 104.294 117.062 103.429 115.996 103.429C114.93 103.429 114.066 104.294 114.066 105.36C114.066 106.427 114.93 107.292 115.996 107.292Z" fill="#2A3032"/>
<defs>
<linearGradient id="paint0_linear_0_242" x1="327.917" y1="7.37616" x2="102.778" y2="362.256" gradientUnits="userSpaceOnUse">
<stop stop-color="#CAFF34"/>
<stop offset="1" stop-color="#CAFF34" stop-opacity="0"/>
</linearGradient>
<linearGradient id="paint1_linear_0_242" x1="64.404" y1="19.3011" x2="231.822" y2="312.564" gradientUnits="userSpaceOnUse">
<stop stop-color="#FFBC0F"/>
<stop offset="1" stop-color="#FFE600" stop-opacity="0"/>
</linearGradient>
</defs>
</svg>
