<svg width="200" height="113" viewBox="0 0 200 113" fill="none" xmlns="http://www.w3.org/2000/svg">
<g clip-path="url(#clip0_0_222)">
<path d="M162.158 1.25891H17.8162C12.9755 1.25891 9.0513 5.178 9.0513 10.0124V103.299C9.0513 108.134 12.9755 112.053 17.8162 112.053H162.158C166.999 112.053 170.923 108.134 170.923 103.299V10.0124C170.923 5.178 166.999 1.25891 162.158 1.25891Z" fill="white" stroke="black" stroke-width="2"/>
<path d="M144.487 16.9879H31.0773C27.5567 16.9879 24.7028 19.8382 24.7028 23.3541V32.5826C24.7028 36.0985 27.5567 38.9487 31.0773 38.9487H144.487C148.007 38.9487 150.861 36.0985 150.861 32.5826V23.3541C150.861 19.8382 148.007 16.9879 144.487 16.9879Z" fill="#CAFF34"/>
<path d="M51.3144 48.7754H31.0773C27.5567 48.7754 24.7028 51.6256 24.7028 55.1416V69.5722C24.7028 73.0881 27.5567 75.9384 31.0773 75.9384H51.3144C54.835 75.9384 57.6889 73.0881 57.6889 69.5722V55.1416C57.6889 51.6256 54.835 48.7754 51.3144 48.7754Z" fill="#EDEEEA"/>
<path d="M51.3144 85.7631H31.0773C27.5567 85.7631 24.7028 88.6133 24.7028 92.1293V106.56C24.7028 110.076 27.5567 112.926 31.0773 112.926H51.3144C54.835 112.926 57.6889 110.076 57.6889 106.56V92.1293C57.6889 88.6133 54.835 85.7631 51.3144 85.7631Z" fill="#EDEEEA"/>
<path d="M97.7148 48.7754H77.4776C73.9571 48.7754 71.1031 51.6256 71.1031 55.1416V69.5722C71.1031 73.0881 73.9571 75.9384 77.4776 75.9384H97.7148C101.235 75.9384 104.089 73.0881 104.089 69.5722V55.1416C104.089 51.6256 101.235 48.7754 97.7148 48.7754Z" fill="#EDEEEA"/>
<path d="M97.7148 85.7631H77.4776C73.9571 85.7631 71.1031 88.6133 71.1031 92.1293V106.56C71.1031 110.076 73.9571 112.926 77.4776 112.926H97.7148C101.235 112.926 104.089 110.076 104.089 106.56V92.1293C104.089 88.6133 101.235 85.7631 97.7148 85.7631Z" fill="#EDEEEA"/>
<path d="M144.115 48.7754H123.878C120.358 48.7754 117.504 51.6256 117.504 55.1416V69.5722C117.504 73.0881 120.358 75.9384 123.878 75.9384H144.115C147.636 75.9384 150.49 73.0881 150.49 69.5722V55.1416C150.49 51.6256 147.636 48.7754 144.115 48.7754Z" fill="#EDEEEA"/>
<path d="M144.115 85.7631H123.878C120.358 85.7631 117.504 88.6133 117.504 92.1293V106.56C117.504 110.076 120.358 112.926 123.878 112.926H144.115C147.636 112.926 150.49 110.076 150.49 106.56V92.1293C150.49 88.6133 147.636 85.7631 144.115 85.7631Z" fill="#EDEEEA"/>
<path d="M0.905762 105.975H177.057C178.738 105.975 180.1 107.335 180.1 109.013C180.1 110.691 178.738 112.052 177.057 112.052H4.09301C2.33274 112.052 0.905762 110.627 0.905762 108.869V105.975Z" fill="white" stroke="black" stroke-width="2"/>
<path d="M189.704 13.4846H155.625C150.784 13.4846 146.86 17.4037 146.86 22.2381V103.298C146.86 108.133 150.784 112.052 155.625 112.052H189.704C194.545 112.052 198.469 108.133 198.469 103.298V22.2381C198.469 17.4037 194.545 13.4846 189.704 13.4846Z" fill="white" stroke="black" stroke-width="2"/>
<path d="M186.229 20.4539H159.255C155.734 20.4539 152.88 23.3041 152.88 26.8201V37.7838C152.88 41.2997 155.734 44.15 159.255 44.15H186.229C189.749 44.15 192.603 41.2997 192.603 37.7838V26.8201C192.603 23.3041 189.749 20.4539 186.229 20.4539Z" fill="#CAFF34"/>
<path d="M187.395 48.7754H158.088C155.212 48.7754 152.88 51.104 152.88 53.9765V53.9766C152.88 56.8491 155.212 59.1777 158.088 59.1777H187.395C190.272 59.1777 192.603 56.8491 192.603 53.9766V53.9765C192.603 51.104 190.272 48.7754 187.395 48.7754Z" fill="#EDEEEA"/>
<path d="M186.229 63.948H159.255C155.734 63.948 152.88 66.7982 152.88 70.3142V82.7307C152.88 86.2466 155.734 89.0969 159.255 89.0969H186.229C189.749 89.0969 192.603 86.2466 192.603 82.7307V70.3142C192.603 66.7982 189.749 63.948 186.229 63.948Z" fill="#EDEEEA"/>
<path d="M186.229 92.5215H159.255C155.734 92.5215 152.88 95.3717 152.88 98.8877V100.402C152.88 103.918 155.734 106.768 159.255 106.768H186.229C189.749 106.768 192.603 103.918 192.603 100.402V98.8877C192.603 95.3717 189.749 92.5215 186.229 92.5215Z" fill="#EDEEEA"/>
</g>
<defs>
<clipPath id="clip0_0_222">
<rect width="200" height="113" fill="white"/>
</clipPath>
</defs>
</svg>
