<svg width="294" height="298" viewBox="0 0 294 298" fill="none" xmlns="http://www.w3.org/2000/svg">
<g filter="url(#filter0_d_0_328)">
<path d="M227.772 2.06683H66.0827C43.0143 2.06683 24.3137 20.7802 24.3137 43.8643V209.949C24.3137 233.033 43.0143 251.746 66.0827 251.746H227.772C250.84 251.746 269.541 233.033 269.541 209.949V43.8643C269.541 20.7802 250.84 2.06683 227.772 2.06683Z" fill="white"/>
<g opacity="0.67" filter="url(#filter1_d_0_328)">
<path opacity="0.67" d="M110.193 204.67C129.55 204.67 145.242 188.967 145.242 169.597C145.242 150.227 129.55 134.524 110.193 134.524C90.8356 134.524 75.1436 150.227 75.1436 169.597C75.1436 188.967 90.8356 204.67 110.193 204.67Z" fill="url(#paint0_linear_0_328)"/>
</g>
<g opacity="0.67" filter="url(#filter2_d_0_328)">
<path opacity="0.67" d="M149.285 225.24C163.244 225.24 174.561 213.916 174.561 199.947C174.561 185.978 163.244 174.654 149.285 174.654C135.325 174.654 124.009 185.978 124.009 199.947C124.009 213.916 135.325 225.24 149.285 225.24Z" fill="url(#paint1_linear_0_328)"/>
</g>
<g opacity="0.67" filter="url(#filter3_d_0_328)">
<path opacity="0.67" d="M167.146 194.551C195.623 194.551 218.709 171.45 218.709 142.953C218.709 114.456 195.623 91.3554 167.146 91.3554C138.669 91.3554 115.584 114.456 115.584 142.953C115.584 171.45 138.669 194.551 167.146 194.551Z" fill="url(#paint2_linear_0_328)"/>
</g>
<path d="M150.154 133.604C151.139 133.604 152.028 133.804 152.819 134.207C153.61 134.609 154.226 135.154 154.666 135.841C155.12 136.516 155.347 137.261 155.347 138.079C155.347 139.272 154.848 140.538 153.849 141.874L149.357 147.809H147.218L151.263 142.438C150.822 142.645 150.329 142.75 149.785 142.75C148.864 142.75 148.041 142.555 147.315 142.165C146.589 141.777 146.018 141.244 145.604 140.57C145.189 139.883 144.982 139.11 144.982 138.254C144.982 137.359 145.202 136.561 145.643 135.86C146.096 135.147 146.712 134.596 147.49 134.207C148.281 133.804 149.169 133.604 150.154 133.604ZM150.135 135.16C149.487 135.16 148.903 135.296 148.385 135.569C147.879 135.828 147.477 136.198 147.179 136.678C146.893 137.145 146.751 137.67 146.751 138.254C146.751 138.825 146.893 139.344 147.179 139.81C147.477 140.265 147.886 140.622 148.405 140.882C148.922 141.128 149.5 141.251 150.135 141.251C150.796 141.251 151.386 141.121 151.905 140.862C152.423 140.602 152.832 140.245 153.13 139.791C153.428 139.337 153.577 138.825 153.577 138.254C153.577 137.67 153.428 137.145 153.13 136.678C152.832 136.198 152.423 135.828 151.905 135.569C151.386 135.296 150.796 135.16 150.135 135.16ZM163.395 148.315C162.228 148.315 161.197 148.004 160.302 147.381C159.421 146.745 158.733 145.87 158.24 144.754C157.761 143.639 157.521 142.373 157.521 140.959C157.521 139.545 157.761 138.28 158.24 137.164C158.733 136.049 159.421 135.18 160.302 134.556C161.197 133.934 162.228 133.623 163.395 133.623C164.561 133.623 165.586 133.934 166.467 134.556C167.361 135.18 168.055 136.049 168.548 137.164C169.041 138.28 169.287 139.545 169.287 140.959C169.287 142.386 169.041 143.658 168.548 144.774C168.055 145.889 167.361 146.758 166.467 147.381C165.586 148.004 164.561 148.315 163.395 148.315ZM163.395 146.758C164.211 146.758 164.931 146.512 165.553 146.018C166.189 145.525 166.674 144.838 167.012 143.956C167.349 143.074 167.518 142.075 167.518 140.959C167.518 139.844 167.349 138.85 167.012 137.982C166.674 137.1 166.189 136.411 165.553 135.918C164.931 135.426 164.211 135.18 163.395 135.18C162.578 135.18 161.859 135.426 161.236 135.918C160.614 136.411 160.134 137.1 159.797 137.982C159.459 138.85 159.291 139.844 159.291 140.959C159.291 142.088 159.459 143.093 159.797 143.975C160.134 144.845 160.614 145.525 161.236 146.018C161.859 146.512 162.578 146.758 163.395 146.758ZM175.385 141.173C174.62 141.173 173.939 141.011 173.343 140.686C172.746 140.35 172.279 139.883 171.943 139.285C171.618 138.689 171.456 138.008 171.456 137.242C171.456 136.477 171.618 135.802 171.943 135.218C172.279 134.622 172.746 134.161 173.343 133.837C173.939 133.499 174.62 133.331 175.385 133.331C176.15 133.331 176.831 133.499 177.427 133.837C178.023 134.161 178.483 134.622 178.808 135.218C179.145 135.802 179.313 136.477 179.313 137.242C179.313 138.008 179.145 138.689 178.808 139.285C178.483 139.883 178.023 140.35 177.427 140.686C176.831 141.011 176.15 141.173 175.385 141.173ZM184.388 133.525H186.353L176.338 147.829H174.354L184.388 133.525ZM175.385 139.519C176.059 139.519 176.603 139.311 177.018 138.897C177.434 138.481 177.641 137.93 177.641 137.242C177.641 136.568 177.434 136.023 177.018 135.608C176.603 135.192 176.059 134.984 175.385 134.984C174.711 134.984 174.16 135.192 173.731 135.608C173.317 136.023 173.109 136.568 173.109 137.242C173.109 137.917 173.317 138.469 173.731 138.897C174.16 139.311 174.711 139.519 175.385 139.519ZM185.323 148.024C184.558 148.024 183.877 147.861 183.28 147.537C182.697 147.2 182.236 146.733 181.9 146.136C181.575 145.538 181.413 144.858 181.413 144.092C181.413 143.327 181.575 142.645 181.9 142.049C182.236 141.452 182.697 140.992 183.28 140.667C183.877 140.33 184.558 140.161 185.323 140.161C186.087 140.161 186.768 140.33 187.365 140.667C187.96 140.992 188.421 141.452 188.746 142.049C189.082 142.645 189.25 143.327 189.25 144.092C189.25 144.858 189.082 145.538 188.746 146.136C188.421 146.733 187.96 147.2 187.365 147.537C186.768 147.861 186.087 148.024 185.323 148.024ZM185.323 146.35C185.997 146.35 186.541 146.142 186.956 145.727C187.384 145.312 187.598 144.767 187.598 144.092C187.598 143.418 187.384 142.873 186.956 142.458C186.541 142.029 185.997 141.816 185.323 141.816C184.661 141.816 184.117 142.029 183.688 142.458C183.274 142.873 183.067 143.418 183.067 144.092C183.067 144.767 183.274 145.312 183.688 145.727C184.117 146.142 184.661 146.35 185.323 146.35Z" fill="white"/>
<path d="M102.906 173.835C102.132 173.835 101.444 173.707 100.841 173.453C100.247 173.197 99.7801 172.844 99.4406 172.391C99.1107 171.938 98.9456 171.424 98.9456 170.848C98.9456 170.216 99.1342 169.664 99.5114 169.192C99.8886 168.72 100.374 168.418 100.969 168.286V168.145C100.516 167.975 100.134 167.687 99.8226 167.281C99.5209 166.866 99.3699 166.409 99.3699 165.908C99.3699 165.371 99.5209 164.894 99.8226 164.479C100.124 164.064 100.539 163.744 101.067 163.517C101.605 163.281 102.217 163.162 102.906 163.162C103.585 163.162 104.188 163.281 104.716 163.517C105.254 163.744 105.668 164.068 105.961 164.493C106.263 164.908 106.413 165.38 106.413 165.908C106.413 166.418 106.263 166.876 105.961 167.281C105.659 167.687 105.282 167.975 104.829 168.145V168.286C105.424 168.418 105.905 168.72 106.272 169.192C106.65 169.664 106.838 170.216 106.838 170.848C106.838 171.424 106.669 171.938 106.329 172.391C105.999 172.844 105.537 173.197 104.942 173.453C104.348 173.707 103.669 173.835 102.906 173.835ZM102.906 167.607C103.424 167.607 103.854 167.47 104.193 167.197C104.533 166.913 104.702 166.554 104.702 166.121C104.702 165.687 104.533 165.333 104.193 165.059C103.854 164.777 103.424 164.634 102.906 164.634C102.378 164.634 101.944 164.777 101.605 165.059C101.265 165.333 101.096 165.687 101.096 166.121C101.096 166.554 101.265 166.913 101.605 167.197C101.944 167.47 102.378 167.607 102.906 167.607ZM102.906 172.363C103.5 172.363 103.99 172.202 104.376 171.882C104.764 171.561 104.957 171.15 104.957 170.65C104.957 170.159 104.764 169.753 104.376 169.432C103.99 169.112 103.5 168.951 102.906 168.951C102.302 168.951 101.808 169.112 101.421 169.432C101.044 169.744 100.855 170.15 100.855 170.65C100.855 171.15 101.044 171.561 101.421 171.882C101.808 172.202 102.302 172.363 102.906 172.363ZM111.125 168.782C110.559 168.782 110.05 168.659 109.598 168.413C109.154 168.169 108.811 167.824 108.565 167.38C108.32 166.937 108.198 166.427 108.198 165.852C108.198 165.286 108.32 164.781 108.565 164.338C108.82 163.894 109.168 163.549 109.612 163.305C110.054 163.059 110.559 162.936 111.125 162.936C111.691 162.936 112.195 163.059 112.638 163.305C113.082 163.549 113.426 163.894 113.671 164.338C113.926 164.781 114.053 165.286 114.053 165.852C114.053 166.427 113.93 166.937 113.686 167.38C113.44 167.824 113.091 168.169 112.638 168.413C112.195 168.659 111.691 168.782 111.125 168.782ZM117.659 163.078H119.386L112.115 173.523H110.376L117.659 163.078ZM111.125 167.31C111.559 167.31 111.903 167.178 112.157 166.913C112.422 166.64 112.554 166.286 112.554 165.852C112.554 165.427 112.422 165.083 112.157 164.819C111.903 164.554 111.559 164.422 111.125 164.422C110.691 164.422 110.343 164.554 110.078 164.819C109.814 165.083 109.683 165.427 109.683 165.852C109.683 166.286 109.814 166.64 110.078 166.913C110.343 167.178 110.691 167.31 111.125 167.31ZM118.636 173.664C118.07 173.664 117.565 173.542 117.122 173.297C116.679 173.042 116.334 172.693 116.09 172.249C115.845 171.805 115.721 171.301 115.721 170.735C115.721 170.169 115.845 169.664 116.09 169.22C116.334 168.777 116.679 168.432 117.122 168.187C117.565 167.932 118.07 167.805 118.636 167.805C119.21 167.805 119.72 167.927 120.163 168.173C120.606 168.418 120.951 168.768 121.195 169.22C121.441 169.664 121.564 170.169 121.564 170.735C121.564 171.301 121.441 171.81 121.195 172.263C120.951 172.707 120.606 173.051 120.163 173.297C119.72 173.542 119.21 173.664 118.636 173.664ZM118.636 172.178C119.069 172.178 119.419 172.047 119.682 171.782C119.955 171.518 120.093 171.169 120.093 170.735C120.093 170.31 119.955 169.966 119.682 169.702C119.419 169.428 119.069 169.291 118.636 169.291C118.221 169.291 117.876 169.428 117.603 169.702C117.339 169.966 117.207 170.31 117.207 170.735C117.207 171.159 117.339 171.509 117.603 171.782C117.876 172.047 118.221 172.178 118.636 172.178Z" fill="white"/>
<path d="M140.98 204.068L144.573 200.704C144.621 200.655 144.775 200.505 145.034 200.254C145.301 200.003 145.496 199.765 145.617 199.537C145.738 199.303 145.799 199.072 145.799 198.845C145.799 198.4 145.645 198.031 145.337 197.741C145.03 197.441 144.653 197.291 144.209 197.291C143.707 197.291 143.286 197.477 142.946 197.85C142.614 198.214 142.436 198.684 142.412 199.259H140.992C140.992 198.643 141.13 198.088 141.405 197.594C141.68 197.092 142.061 196.704 142.546 196.429C143.039 196.145 143.594 196.003 144.209 196.003C144.792 196.003 145.313 196.121 145.774 196.356C146.236 196.59 146.596 196.914 146.854 197.327C147.122 197.732 147.255 198.194 147.255 198.712C147.263 199.182 147.126 199.631 146.842 200.06C146.567 200.481 146.122 200.979 145.508 201.554L143.359 203.522V203.643H147.098V204.882H140.98V204.068ZM150.767 200.813C150.282 200.813 149.845 200.708 149.456 200.497C149.077 200.287 148.781 199.991 148.571 199.611C148.361 199.23 148.254 198.793 148.254 198.299C148.254 197.813 148.361 197.38 148.571 196.999C148.789 196.618 149.089 196.324 149.468 196.112C149.849 195.902 150.282 195.797 150.767 195.797C151.253 195.797 151.685 195.902 152.066 196.112C152.446 196.324 152.742 196.618 152.952 196.999C153.17 197.38 153.28 197.813 153.28 198.299C153.28 198.793 153.174 199.23 152.964 199.611C152.754 199.991 152.454 200.287 152.066 200.497C151.685 200.708 151.253 200.813 150.767 200.813ZM156.375 195.919H157.855L151.617 204.882H150.124L156.375 195.919ZM150.767 199.549C151.139 199.549 151.435 199.436 151.653 199.21C151.88 198.975 151.993 198.672 151.993 198.299C151.993 197.934 151.88 197.639 151.653 197.412C151.435 197.186 151.139 197.072 150.767 197.072C150.395 197.072 150.096 197.186 149.869 197.412C149.642 197.639 149.529 197.934 149.529 198.299C149.529 198.672 149.642 198.975 149.869 199.21C150.096 199.436 150.395 199.549 150.767 199.549ZM157.212 205.003C156.726 205.003 156.294 204.898 155.913 204.687C155.533 204.469 155.238 204.169 155.027 203.788C154.817 203.409 154.712 202.975 154.712 202.489C154.712 202.004 154.817 201.57 155.027 201.19C155.238 200.809 155.533 200.514 155.913 200.303C156.294 200.085 156.726 199.975 157.212 199.975C157.706 199.975 158.142 200.081 158.523 200.291C158.903 200.501 159.199 200.801 159.409 201.19C159.619 201.57 159.725 202.004 159.725 202.489C159.725 202.975 159.619 203.413 159.409 203.8C159.199 204.181 158.903 204.477 158.523 204.687C158.142 204.898 157.706 205.003 157.212 205.003ZM157.212 203.728C157.585 203.728 157.884 203.615 158.11 203.388C158.345 203.161 158.462 202.861 158.462 202.489C158.462 202.125 158.345 201.829 158.11 201.603C157.884 201.367 157.585 201.25 157.212 201.25C156.857 201.25 156.561 201.367 156.326 201.603C156.099 201.829 155.986 202.125 155.986 202.489C155.986 202.853 156.099 203.153 156.326 203.388C156.561 203.615 156.857 203.728 157.212 203.728Z" fill="white"/>
<path d="M64.4848 49.6713C63.2771 49.6713 62.1993 49.4036 61.2514 48.8681C60.3188 48.3327 59.585 47.5907 59.0499 46.6422C58.5302 45.6937 58.2702 44.6153 58.2702 43.4066C58.2702 42.1981 58.5302 41.1272 59.0499 40.194C59.585 39.2455 60.3188 38.5036 61.2514 37.968C62.1993 37.4326 63.2771 37.165 64.4848 37.165C65.6773 37.165 66.7474 37.4326 67.6952 37.968C68.6431 38.5036 69.3769 39.2455 69.8967 40.194C70.4318 41.1425 70.6993 42.2133 70.6993 43.4066C70.6993 44.6153 70.4318 45.6937 69.8967 46.6422C69.3769 47.5907 68.6431 48.3327 67.6952 48.8681C66.7474 49.4036 65.6773 49.6713 64.4848 49.6713ZM64.4848 47.9502C65.3103 47.9502 66.0518 47.759 66.7091 47.3765C67.3665 46.9788 67.8787 46.4357 68.2456 45.7473C68.6125 45.0589 68.796 44.2786 68.796 43.4066C68.796 42.5499 68.6125 41.7774 68.2456 41.089C67.8787 40.4005 67.3665 39.8651 66.7091 39.4826C66.0518 39.0849 65.3103 38.886 64.4848 38.886C63.6592 38.886 62.9178 39.0849 62.2603 39.4826C61.603 39.8651 61.0909 40.4005 60.724 41.089C60.357 41.7774 60.1736 42.5499 60.1736 43.4066C60.1736 44.2786 60.357 45.0589 60.724 45.7473C61.0909 46.4357 61.603 46.9788 62.2603 47.3765C62.9178 47.759 63.6592 47.9502 64.4848 47.9502ZM74.1866 39.1384H72.3291V37.6238H74.1866V35.2832C74.1866 34.2583 74.4694 33.4398 75.0351 32.8279C75.616 32.2006 76.3651 31.887 77.2824 31.887C77.8633 31.887 78.4519 31.9788 79.0481 32.1624V33.8146C78.5742 33.6769 78.1538 33.608 77.7869 33.608C77.2824 33.608 76.8696 33.7764 76.5485 34.1129C76.2428 34.4495 76.0899 34.9007 76.0899 35.4668V37.6238H79.0252V39.1384H76.0899V49.2124H74.1866V39.1384ZM81.9126 39.1384H80.0552V37.6238H81.9126V35.2832C81.9126 34.2583 82.1954 33.4398 82.7611 32.8279C83.342 32.2006 84.0912 31.887 85.0084 31.887C85.5894 31.887 86.1779 31.9788 86.7742 32.1624V33.8146C86.3003 33.6769 85.8798 33.608 85.5129 33.608C85.0084 33.608 84.5957 33.7764 84.2746 34.1129C83.9688 34.4495 83.816 34.9007 83.816 35.4668V37.6238H86.7512V39.1384H83.816V49.2124H81.9126V39.1384ZM90.5819 35.4209C90.1845 35.4209 89.8557 35.2908 89.5958 35.0308C89.336 34.7708 89.206 34.4419 89.206 34.044C89.206 33.6616 89.336 33.348 89.5958 33.1033C89.8557 32.8431 90.1845 32.7132 90.5819 32.7132C90.9794 32.7132 91.3005 32.8355 91.5451 33.0803C91.805 33.325 91.9349 33.6463 91.9349 34.044C91.9349 34.4419 91.805 34.7708 91.5451 35.0308C91.3005 35.2908 90.9794 35.4209 90.5819 35.4209ZM89.6188 37.6238H91.5222V49.2124H89.6188V37.6238ZM100.67 49.6713C99.5238 49.6713 98.4918 49.4036 97.5745 48.8681C96.6572 48.3327 95.9387 47.5907 95.419 46.6422C94.8991 45.6937 94.6393 44.6305 94.6393 43.4525C94.6393 42.2592 94.8915 41.1884 95.396 40.2399C95.9158 39.2761 96.6343 38.5265 97.5516 37.991C98.4689 37.4403 99.5084 37.165 100.67 37.165C101.603 37.165 102.475 37.3485 103.285 37.7156C104.095 38.0828 104.768 38.5954 105.303 39.2531C105.837 39.8957 106.174 40.6223 106.311 41.4332L104.455 41.6856C104.255 40.8595 103.797 40.1864 103.079 39.6662C102.375 39.146 101.579 38.886 100.693 38.886C99.9136 38.886 99.2027 39.0772 98.5606 39.4597C97.9338 39.8422 97.4369 40.3776 97.07 41.066C96.7184 41.7545 96.5426 42.5346 96.5426 43.4066C96.5426 44.294 96.7184 45.0818 97.07 45.7703C97.4369 46.4586 97.9338 46.9941 98.5606 47.3765C99.1874 47.759 99.8907 47.9502 100.67 47.9502C101.572 47.9502 102.375 47.6978 103.079 47.1929C103.782 46.6729 104.247 46.0074 104.477 45.1966L106.357 45.449C106.189 46.2598 105.83 46.9864 105.28 47.629C104.729 48.2715 104.049 48.7764 103.239 49.1435C102.444 49.4954 101.587 49.6713 100.67 49.6713ZM114.918 49.6713C113.726 49.6713 112.655 49.396 111.708 48.8452C110.759 48.2944 110.018 47.5372 109.484 46.5733C108.948 45.5943 108.68 44.4928 108.68 43.2689C108.68 42.1063 108.941 41.066 109.461 40.1481C109.995 39.2149 110.729 38.4882 111.662 37.968C112.594 37.4326 113.65 37.165 114.826 37.165C115.988 37.165 117.027 37.4326 117.945 37.968C118.878 38.4882 119.604 39.2149 120.124 40.1481C120.643 41.066 120.903 42.1139 120.903 43.2919C120.903 43.6285 120.896 43.8809 120.881 44.0492H110.629C110.767 45.2271 111.226 46.1756 112.005 46.8946C112.8 47.5984 113.787 47.9502 114.963 47.9502C115.82 47.9502 116.6 47.7513 117.303 47.3536C118.022 46.9405 118.564 46.3898 118.931 45.7014L120.513 46.5045C120.04 47.4989 119.305 48.2791 118.312 48.8452C117.334 49.396 116.202 49.6713 114.918 49.6713ZM118.908 42.374C118.74 41.3185 118.274 40.477 117.509 39.8498C116.76 39.2072 115.836 38.886 114.734 38.886C113.665 38.886 112.754 39.2072 112.005 39.8498C111.272 40.4923 110.821 41.3337 110.652 42.374H118.908ZM128.305 37.6238H130.185L133.418 47.3306H133.625L136.216 37.6238H138.647L141.308 47.3536H141.514L144.678 37.6238H146.559L142.684 49.2124H139.955L137.546 39.8268H137.317L134.887 49.2124H132.181L128.305 37.6238ZM154.42 49.6713C153.212 49.6713 152.135 49.4036 151.188 48.8681C150.254 48.3327 149.521 47.5907 148.985 46.6422C148.466 45.6937 148.206 44.6153 148.206 43.4066C148.206 42.1981 148.466 41.1272 148.985 40.194C149.521 39.2455 150.254 38.5036 151.188 37.968C152.135 37.4326 153.212 37.165 154.42 37.165C155.613 37.165 156.683 37.4326 157.631 37.968C158.579 38.5036 159.313 39.2455 159.833 40.194C160.367 41.1425 160.635 42.2133 160.635 43.4066C160.635 44.6153 160.367 45.6937 159.833 46.6422C159.313 47.5907 158.579 48.3327 157.631 48.8681C156.683 49.4036 155.613 49.6713 154.42 49.6713ZM154.42 47.9502C155.246 47.9502 155.987 47.759 156.645 47.3765C157.302 46.9788 157.815 46.4357 158.181 45.7473C158.548 45.0589 158.732 44.2786 158.732 43.4066C158.732 42.5499 158.548 41.7774 158.181 41.089C157.815 40.4005 157.302 39.8651 156.645 39.4826C155.987 39.0849 155.246 38.886 154.42 38.886C153.595 38.886 152.854 39.0849 152.196 39.4826C151.539 39.8651 151.026 40.4005 150.66 41.089C150.293 41.7774 150.109 42.5499 150.109 43.4066C150.109 44.2786 150.293 45.0589 150.66 45.7473C151.026 46.4357 151.539 46.9788 152.196 47.3765C152.854 47.759 153.595 47.9502 154.42 47.9502ZM163.538 37.6238H165.396V39.1843H165.602C165.862 38.6642 166.283 38.2358 166.864 37.8992C167.444 37.5627 168.056 37.3944 168.698 37.3944C169.279 37.3944 169.753 37.4939 170.12 37.6927V39.4597C169.585 39.2302 169.012 39.1154 168.4 39.1154C167.529 39.1154 166.818 39.475 166.267 40.194C165.717 40.8977 165.442 41.8233 165.442 42.9706V49.2124H163.538V37.6238ZM172.564 32.346H174.466V42.5805H174.696L179.649 37.6238H182.171L176.461 43.1771L182.309 49.2124H179.764L174.696 43.8197H174.466V49.2124H172.564V32.346ZM184.096 32.346H186V49.2124H184.096V32.346ZM195.112 49.6713C193.904 49.6713 192.825 49.4036 191.878 48.8681C190.946 48.3327 190.212 47.5907 189.676 46.6422C189.156 45.6937 188.897 44.6153 188.897 43.4066C188.897 42.1981 189.156 41.1272 189.676 40.194C190.212 39.2455 190.946 38.5036 191.878 37.968C192.825 37.4326 193.904 37.165 195.112 37.165C196.303 37.165 197.374 37.4326 198.322 37.968C199.269 38.5036 200.003 39.2455 200.523 40.194C201.058 41.1425 201.325 42.2133 201.325 43.4066C201.325 44.6153 201.058 45.6937 200.523 46.6422C200.003 47.5907 199.269 48.3327 198.322 48.8681C197.374 49.4036 196.303 49.6713 195.112 49.6713ZM195.112 47.9502C195.937 47.9502 196.678 47.759 197.336 47.3765C197.993 46.9788 198.505 46.4357 198.872 45.7473C199.239 45.0589 199.423 44.2786 199.423 43.4066C199.423 42.5499 199.239 41.7774 198.872 41.089C198.505 40.4005 197.993 39.8651 197.336 39.4826C196.678 39.0849 195.937 38.886 195.112 38.886C194.285 38.886 193.544 39.0849 192.886 39.4826C192.229 39.8651 191.717 40.4005 191.35 41.089C190.984 41.7774 190.8 42.5499 190.8 43.4066C190.8 44.2786 190.984 45.0589 191.35 45.7473C191.717 46.4357 192.229 46.9788 192.886 47.3765C193.544 47.759 194.285 47.9502 195.112 47.9502ZM207.462 49.5795C206.208 49.5795 205.2 49.2812 204.436 48.6846C203.687 48.0726 203.311 47.2695 203.311 46.275C203.311 45.2347 203.755 44.3628 204.642 43.6591C205.528 42.9554 206.812 42.5116 208.494 42.3281L211.705 41.938V41.4791C211.705 40.6989 211.438 40.0793 210.902 39.6203C210.367 39.146 209.625 38.9089 208.678 38.9089C207.791 38.9089 207.087 39.1154 206.568 39.5285C206.048 39.9262 205.796 40.4846 205.812 41.2037H203.885C203.885 39.9799 204.321 39.0083 205.192 38.2893C206.063 37.5551 207.233 37.1879 208.701 37.1879C210.199 37.1879 211.392 37.5856 212.278 38.3811C213.165 39.1613 213.608 40.2093 213.608 41.525V49.2124H211.705V47.5142H211.499C210.642 48.8911 209.297 49.5795 207.462 49.5795ZM207.737 47.9961C208.518 47.9961 209.205 47.8508 209.801 47.5601C210.397 47.2695 210.864 46.8641 211.2 46.3439C211.537 45.8238 211.705 45.2425 211.705 44.5999V43.5673L208.494 43.9344C207.363 44.0721 206.53 44.3475 205.995 44.7606C205.475 45.1583 205.215 45.6478 205.215 46.2291C205.215 46.7799 205.437 47.2159 205.88 47.5372C206.338 47.8431 206.958 47.9961 207.737 47.9961ZM222.316 49.6713C221.2 49.6713 220.183 49.4036 219.266 48.8681C218.348 48.3174 217.622 47.5677 217.088 46.6192C216.568 45.6708 216.308 44.5999 216.308 43.4066C216.308 42.2133 216.568 41.1425 217.088 40.194C217.607 39.2455 218.326 38.5036 219.244 37.968C220.161 37.4326 221.177 37.165 222.293 37.165C223.225 37.165 224.058 37.3562 224.792 37.7386C225.527 38.1057 226.107 38.6413 226.536 39.3449H226.765V32.346H228.668V49.2124H226.765V47.4224H226.536C226.107 48.1414 225.527 48.6999 224.792 49.0976C224.074 49.48 223.248 49.6713 222.316 49.6713ZM222.522 47.9502C223.332 47.9502 224.058 47.7513 224.701 47.3536C225.358 46.9558 225.87 46.4127 226.238 45.7244C226.62 45.0206 226.81 44.2481 226.81 43.4066C226.81 42.5653 226.627 41.8004 226.261 41.1119C225.893 40.4235 225.381 39.8803 224.724 39.4826C224.066 39.0849 223.332 38.886 222.522 38.886C221.697 38.886 220.955 39.0849 220.298 39.4826C219.656 39.8803 219.144 40.4235 218.762 41.1119C218.394 41.8004 218.211 42.5653 218.211 43.4066C218.211 44.2633 218.394 45.0359 218.762 45.7244C219.144 46.4127 219.663 46.9558 220.321 47.3536C220.978 47.7513 221.712 47.9502 222.522 47.9502Z" fill="black"/>
<path d="M76.198 66.4369C75.6183 66.4369 75.1502 66.6302 74.8009 67.0169C74.4516 67.3962 74.2806 67.8795 74.2806 68.4669C74.2806 69.0471 74.4516 69.5304 74.7935 69.9021C75.1502 70.2889 75.6183 70.4897 76.198 70.4897C76.7776 70.4897 77.2457 70.2889 77.6024 69.9021C77.9442 69.5304 78.1152 69.0471 78.1152 68.4669C78.1152 67.8795 77.9368 67.3962 77.595 67.0169C77.2457 66.6302 76.7776 66.4369 76.198 66.4369ZM76.198 67.0838C76.5621 67.0838 76.8445 67.2251 77.0525 67.5152C77.2308 67.7606 77.32 68.0803 77.32 68.4669C77.32 68.8462 77.2308 69.1586 77.0525 69.4114C76.8445 69.694 76.5621 69.8427 76.198 69.8427C75.8338 69.8427 75.5514 69.694 75.3508 69.4114C75.1724 69.166 75.0907 68.8536 75.0907 68.4669C75.0907 68.0803 75.1724 67.7606 75.3508 67.5152C75.5514 67.2251 75.8338 67.0838 76.198 67.0838ZM80.788 66.4369C80.2678 66.4369 79.8665 66.6228 79.5991 67.0021V66.541H78.8633V71.8579H79.651V69.8204C79.9632 70.2666 80.3496 70.4897 80.8252 70.4897C81.3751 70.4897 81.8135 70.2888 82.1256 69.8873C82.4154 69.5155 82.564 69.0471 82.564 68.4819C82.564 67.8869 82.4154 67.411 82.1182 67.0393C81.7912 66.6377 81.3528 66.4369 80.788 66.4369ZM80.6691 67.0764C81.0555 67.0764 81.3379 67.2102 81.5237 67.4928C81.6723 67.7308 81.7541 68.058 81.7541 68.4819C81.7541 68.9058 81.6649 69.2329 81.5014 69.4708C81.3156 69.7237 81.0333 69.8501 80.6468 69.8501C80.3496 69.8501 80.1118 69.7312 79.9334 69.5006C79.7253 69.2478 79.6288 68.9132 79.6288 68.5041V68.4373C79.6288 68.0432 79.7105 67.7234 79.8739 67.4854C80.0598 67.2102 80.3273 67.0764 80.6691 67.0764ZM84.9321 66.4369C84.3673 66.4369 83.914 66.6302 83.587 67.0243C83.2452 67.411 83.0817 67.8869 83.0817 68.4595C83.0817 69.0916 83.26 69.5899 83.6167 69.9617C83.9437 70.3112 84.397 70.4897 84.9618 70.4897C85.4746 70.4897 85.8982 70.341 86.2325 70.051C86.5 69.813 86.6709 69.508 86.7602 69.1511H85.9725C85.8684 69.3742 85.757 69.5452 85.6232 69.6493C85.4522 69.7758 85.2293 69.8427 84.9543 69.8427C84.6423 69.8427 84.397 69.7386 84.2187 69.5452C84.0403 69.3445 83.9437 69.0545 83.914 68.6826H86.827C86.8196 67.9985 86.6635 67.4631 86.3663 67.0764C86.0394 66.6451 85.5563 66.4369 84.9321 66.4369ZM84.9543 67.0838C85.5786 67.0838 85.9278 67.4184 86.0021 68.0877H83.9289C83.9734 67.7606 84.0849 67.5152 84.2484 67.3441C84.4268 67.1656 84.6571 67.0838 84.9543 67.0838ZM89.4462 66.4369C89.2083 66.4369 88.9928 66.4815 88.7997 66.5856C88.6065 66.6823 88.4355 66.8236 88.2869 67.0169V66.541H87.4992V70.3856H88.2869V68.0728C88.3166 67.7606 88.4281 67.5151 88.6065 67.3367C88.7699 67.173 88.9706 67.0987 89.1935 67.0987C89.7879 67.0987 90.0927 67.4259 90.0927 68.0803V70.3856H90.8804V68.0134C90.8804 66.9574 90.3973 66.4369 89.4462 66.4369ZM95.6897 66.4369C95.2289 66.4369 94.85 66.5336 94.5602 66.7343C94.2703 66.9277 94.1292 67.2028 94.1292 67.5523C94.1292 67.8795 94.2778 68.1398 94.575 68.3257C94.7534 68.4447 95.0729 68.5562 95.5261 68.6603C95.92 68.7495 96.1802 68.8239 96.299 68.8834C96.522 68.9875 96.6408 69.1362 96.6408 69.3221C96.6408 69.6642 96.3288 69.8427 95.7194 69.8427C95.4222 69.8427 95.2141 69.7906 95.0803 69.694C94.9465 69.5899 94.85 69.404 94.8053 69.1437H94.0325C94.1217 70.036 94.6865 70.4897 95.7417 70.4897C96.8787 70.4897 97.4509 70.0806 97.4509 69.2701C97.4509 68.928 97.2949 68.6603 96.9901 68.4669C96.782 68.3332 96.4551 68.2067 96.0166 68.1026C95.6302 68.006 95.3775 67.9316 95.2439 67.8721C95.0358 67.7754 94.9317 67.6639 94.9317 67.53C94.9317 67.3813 94.9986 67.2623 95.1398 67.188C95.2587 67.1136 95.437 67.0838 95.6749 67.0838C95.9423 67.0838 96.1504 67.1284 96.2842 67.2177C96.4105 67.2995 96.4997 67.4408 96.5591 67.649H97.3246C97.2354 66.8384 96.6855 66.4369 95.6897 66.4369ZM100.041 66.4369C99.5207 66.4369 99.1194 66.6228 98.8518 67.0021V66.541H98.1162V71.8579H98.9039V69.8204C99.216 70.2666 99.6024 70.4897 100.078 70.4897C100.628 70.4897 101.067 70.2888 101.378 69.8873C101.669 69.5155 101.817 69.0471 101.817 68.4819C101.817 67.8869 101.669 67.411 101.371 67.0393C101.044 66.6377 100.606 66.4369 100.041 66.4369ZM99.922 67.0764C100.309 67.0764 100.591 67.2102 100.776 67.4928C100.926 67.7308 101.007 68.058 101.007 68.4819C101.007 68.9058 100.918 69.2329 100.754 69.4708C100.568 69.7237 100.286 69.8501 99.8997 69.8501C99.6024 69.8501 99.3647 69.7312 99.1863 69.5006C98.9782 69.2478 98.8816 68.9132 98.8816 68.5041V68.4373C98.8816 68.0432 98.9633 67.7234 99.1268 67.4854C99.3126 67.2102 99.5802 67.0764 99.922 67.0764ZM104.289 66.4369C103.814 66.4369 103.427 66.5187 103.145 66.6971C102.817 66.8905 102.61 67.2028 102.528 67.6193L103.308 67.6862C103.353 67.4706 103.464 67.3143 103.642 67.2102C103.791 67.121 103.992 67.0764 104.237 67.0764C104.816 67.0764 105.106 67.3441 105.106 67.8795V68.0356L104.244 68.058C103.679 68.0728 103.234 68.1844 102.921 68.4075C102.58 68.638 102.409 68.9727 102.409 69.404C102.409 69.7237 102.528 69.984 102.773 70.1847C102.996 70.3856 103.308 70.4897 103.71 70.4897C104.051 70.4897 104.348 70.4227 104.601 70.3038C104.824 70.1922 105.009 70.036 105.159 69.8427V70.3856H105.887V67.9316C105.887 67.4631 105.767 67.1062 105.537 66.8608C105.27 66.5782 104.854 66.4369 104.289 66.4369ZM105.106 68.6082V68.8314C105.106 69.1288 104.98 69.3817 104.742 69.5824C104.505 69.7832 104.222 69.8873 103.888 69.8873C103.687 69.8873 103.523 69.8353 103.405 69.7386C103.278 69.6419 103.219 69.523 103.219 69.3742C103.219 68.8982 103.575 68.6454 104.296 68.6306L105.106 68.6082ZM108.497 66.4369C107.903 66.4369 107.442 66.6377 107.108 67.0393C106.796 67.411 106.64 67.8869 106.64 68.4669C106.64 69.0619 106.796 69.5378 107.115 69.9097C107.442 70.2963 107.895 70.4897 108.482 70.4897C108.973 70.4897 109.375 70.3632 109.672 70.1178C109.969 69.865 110.17 69.4784 110.259 68.9652H109.479C109.405 69.5452 109.077 69.8427 108.49 69.8427C108.148 69.8427 107.895 69.7163 107.724 69.4784C107.539 69.2329 107.45 68.8908 107.45 68.4595C107.45 68.0282 107.539 67.6862 107.732 67.4482C107.917 67.2028 108.171 67.0838 108.497 67.0838C108.765 67.0838 108.981 67.1434 109.144 67.2697C109.307 67.3887 109.412 67.5821 109.464 67.8423H110.244C110.17 67.3664 109.976 67.0095 109.679 66.7715C109.382 66.5484 108.988 66.4369 108.497 66.4369ZM112.56 66.4369C111.995 66.4369 111.542 66.6302 111.214 67.0243C110.873 67.411 110.709 67.8869 110.709 68.4595C110.709 69.0916 110.888 69.5899 111.244 69.9617C111.572 70.3112 112.024 70.4897 112.589 70.4897C113.102 70.4897 113.525 70.341 113.86 70.051C114.127 69.813 114.298 69.508 114.388 69.1511H113.599C113.496 69.3742 113.384 69.5452 113.251 69.6493C113.08 69.7758 112.856 69.8427 112.582 69.8427C112.27 69.8427 112.024 69.7386 111.846 69.5452C111.668 69.3445 111.572 69.0545 111.542 68.6826H114.455C114.447 67.9985 114.291 67.4631 113.994 67.0764C113.667 66.6451 113.184 66.4369 112.56 66.4369ZM112.582 67.0838C113.206 67.0838 113.555 67.4184 113.63 68.0877H111.557C111.601 67.7606 111.713 67.5152 111.876 67.3441C112.054 67.1656 112.285 67.0838 112.582 67.0838Z" fill="#4E4E4E"/>
<path d="M62.8341 63.1125H62.8341C60.3717 63.1125 58.3754 65.1101 58.3754 67.5743V67.5743C58.3754 70.0385 60.3717 72.036 62.8341 72.036H62.8341C65.2966 72.036 67.2929 70.0385 67.2929 67.5743V67.5743C67.2929 65.1101 65.2966 63.1125 62.8341 63.1125Z" fill="#B7F210"/>
<path d="M143.302 64.9719V70.3856H144.09V68.229C144.09 67.8944 144.172 67.6193 144.342 67.4036C144.506 67.188 144.721 67.0838 144.989 67.0838C145.286 67.0838 145.517 67.173 145.665 67.359C145.799 67.5375 145.873 67.7903 145.873 68.1323V70.3856H146.661V67.9985C146.661 67.4928 146.549 67.1062 146.327 66.8458C146.088 66.5708 145.74 66.4369 145.278 66.4369C145.034 66.4369 144.818 66.4815 144.624 66.5856C144.409 66.6897 144.231 66.8608 144.09 67.0838V64.9719H143.302ZM149.286 66.4369C148.81 66.4369 148.424 66.5187 148.141 66.6971C147.815 66.8905 147.606 67.2028 147.524 67.6193L148.305 67.6862C148.35 67.4706 148.461 67.3143 148.64 67.2102C148.788 67.121 148.988 67.0764 149.234 67.0764C149.814 67.0764 150.103 67.3441 150.103 67.8795V68.0356L149.242 68.058C148.677 68.0728 148.23 68.1844 147.919 68.4075C147.576 68.638 147.406 68.9727 147.406 69.404C147.406 69.7237 147.524 69.984 147.77 70.1847C147.993 70.3856 148.305 70.4897 148.706 70.4897C149.049 70.4897 149.346 70.4227 149.598 70.3038C149.821 70.1922 150.007 70.036 150.155 69.8427V70.3856H150.884V67.9316C150.884 67.4631 150.765 67.1062 150.535 66.8608C150.267 66.5782 149.851 66.4369 149.286 66.4369ZM150.103 68.6082V68.8314C150.103 69.1288 149.977 69.3817 149.74 69.5824C149.501 69.7832 149.219 69.8873 148.884 69.8873C148.684 69.8873 148.521 69.8353 148.402 69.7386C148.275 69.6419 148.216 69.523 148.216 69.3742C148.216 68.8982 148.573 68.6454 149.294 68.6306L150.103 68.6082ZM151.875 64.9719V70.3856H152.663V64.9719H151.875ZM153.732 64.9719V70.3856H154.52V64.9719H153.732Z" fill="#4E4E4E"/>
<path d="M136.165 67.5743C136.165 65.1101 134.169 63.1125 131.706 63.1125C129.244 63.1125 127.248 65.1101 127.248 67.5743V67.5743C127.248 70.0385 129.244 72.036 131.706 72.036C134.169 72.036 136.165 70.0385 136.165 67.5743V67.5743Z" fill="#72D2D5"/>
<path d="M185.505 66.4369C185.118 66.4369 184.762 66.6079 184.449 66.9649V66.541H183.661V70.3855H184.449V68.0728C184.449 67.8051 184.524 67.5747 184.687 67.3887C184.836 67.1954 185.044 67.0987 185.297 67.0987C185.816 67.0987 186.084 67.3962 186.084 68.006V70.3855H186.872V68.0208C186.872 67.7382 186.946 67.5077 187.095 67.3441C187.243 67.1805 187.422 67.0987 187.645 67.0987C187.942 67.0987 188.165 67.1656 188.299 67.3143C188.432 67.4556 188.499 67.6862 188.499 67.9985V70.3855H189.287V67.8647C189.287 67.4334 189.153 67.0913 188.901 66.831C188.64 66.5632 188.314 66.4369 187.919 66.4369C187.66 66.4369 187.444 66.4815 187.265 66.5782C187.072 66.6749 186.887 66.8458 186.716 67.0838C186.478 66.6525 186.07 66.4369 185.505 66.4369ZM191.806 66.4369C191.241 66.4369 190.787 66.6302 190.461 67.0243C190.12 67.411 189.955 67.8869 189.955 68.4595C189.955 69.0916 190.134 69.5899 190.491 69.9617C190.817 70.3112 191.271 70.4897 191.836 70.4897C192.349 70.4897 192.772 70.341 193.107 70.0509C193.374 69.8129 193.544 69.508 193.633 69.1511H192.846C192.742 69.3742 192.631 69.5452 192.497 69.6493C192.326 69.7758 192.103 69.8427 191.828 69.8427C191.516 69.8427 191.271 69.7386 191.093 69.5452C190.915 69.3445 190.817 69.0545 190.787 68.6826H193.701C193.694 67.9985 193.537 67.4631 193.24 67.0764C192.913 66.6451 192.43 66.4369 191.806 66.4369ZM191.828 67.0838C192.453 67.0838 192.801 67.4184 192.876 68.0877H190.802C190.848 67.7605 190.959 67.5151 191.122 67.3441C191.3 67.1656 191.531 67.0838 191.828 67.0838ZM196.001 66.4369C195.436 66.4369 194.982 66.6302 194.655 67.0243C194.313 67.411 194.15 67.8869 194.15 68.4595C194.15 69.0916 194.328 69.5899 194.685 69.9617C195.012 70.3112 195.465 70.4897 196.03 70.4897C196.543 70.4897 196.966 70.341 197.301 70.0509C197.568 69.8129 197.739 69.508 197.828 69.1511H197.041C196.937 69.3742 196.825 69.5452 196.692 69.6493C196.521 69.7758 196.297 69.8427 196.023 69.8427C195.71 69.8427 195.465 69.7386 195.287 69.5452C195.109 69.3445 195.012 69.0545 194.982 68.6826H197.895C197.887 67.9985 197.732 67.4631 197.435 67.0764C197.107 66.6451 196.625 66.4369 196.001 66.4369ZM196.023 67.0838C196.647 67.0838 196.996 67.4184 197.07 68.0877H194.997C195.041 67.7605 195.154 67.5151 195.317 67.3441C195.495 67.1656 195.725 67.0838 196.023 67.0838ZM199.734 65.2991L198.947 65.6263V66.541H198.233V67.1954H198.947V69.4262C198.947 69.7312 199.013 69.9617 199.162 70.1253C199.31 70.2963 199.556 70.3855 199.883 70.3855H200.514V69.7312H200.009C199.912 69.7312 199.845 69.7014 199.801 69.6568C199.756 69.6047 199.734 69.5304 199.734 69.4262V67.1954H200.611V66.541H199.734V65.2991ZM201.803 65.0017C201.647 65.0017 201.521 65.0463 201.416 65.1504C201.312 65.2471 201.26 65.3735 201.26 65.5297C201.26 65.6784 201.312 65.8123 201.416 65.9163C201.521 66.013 201.647 66.0651 201.803 66.0651C201.951 66.0651 202.085 66.013 202.19 65.9163C202.293 65.8123 202.353 65.6858 202.353 65.5297C202.353 65.3735 202.301 65.2471 202.197 65.1504C202.092 65.0463 201.959 65.0017 201.803 65.0017ZM201.408 66.541V70.3855H202.197V66.541H201.408ZM205.21 66.4369C204.972 66.4369 204.756 66.4815 204.563 66.5856C204.37 66.6823 204.199 66.8236 204.05 67.0169V66.541H203.263V70.3855H204.05V68.0728C204.08 67.7605 204.191 67.5151 204.37 67.3367C204.534 67.173 204.734 67.0987 204.957 67.0987C205.551 67.0987 205.857 67.4258 205.857 68.0803V70.3855H206.644V68.0134C206.644 66.9574 206.161 66.4369 205.21 66.4369ZM209.142 66.4369C208.622 66.4369 208.198 66.6154 207.879 66.9797C207.552 67.3367 207.396 67.7977 207.396 68.3777C207.396 68.9578 207.552 69.4188 207.879 69.7684C208.198 70.1178 208.622 70.2963 209.142 70.2963C209.647 70.2963 210.034 70.0806 210.316 69.6568V70.2517C210.316 70.973 209.982 71.3373 209.313 71.3373C209.001 71.3373 208.771 71.2853 208.63 71.196C208.48 71.0994 208.391 70.9358 208.347 70.7127H207.559C207.633 71.1366 207.804 71.4489 208.087 71.6571C208.369 71.8579 208.778 71.962 209.313 71.962C210.502 71.962 211.104 71.3523 211.104 70.1327V66.541H210.316V67.0541C210.034 66.6377 209.647 66.4369 209.142 66.4369ZM209.262 67.0764C209.595 67.0764 209.855 67.188 210.049 67.4258C210.227 67.6564 210.324 67.9762 210.324 68.3777C210.324 68.7719 210.227 69.0842 210.049 69.3147C209.855 69.5378 209.595 69.6493 209.262 69.6493C208.875 69.6493 208.6 69.5155 208.428 69.2627C208.28 69.047 208.206 68.7495 208.206 68.3777C208.206 67.9688 208.295 67.649 208.488 67.4258C208.667 67.188 208.927 67.0764 209.262 67.0764ZM216.251 66.4369C216.013 66.4369 215.806 66.5038 215.627 66.6525C215.478 66.7567 215.352 66.9128 215.255 67.121V66.541H214.468V70.3855H215.255V68.348C215.255 68.0134 215.352 67.7382 215.552 67.53C215.739 67.3367 215.954 67.24 216.191 67.24C216.37 67.24 216.556 67.2623 216.749 67.3218V66.5336C216.615 66.4666 216.445 66.4369 216.251 66.4369ZM219.001 66.4369C218.421 66.4369 217.954 66.6302 217.604 67.0169C217.255 67.3962 217.084 67.8795 217.084 68.4669C217.084 69.047 217.255 69.5304 217.596 69.9021C217.954 70.2888 218.421 70.4897 219.001 70.4897C219.581 70.4897 220.049 70.2888 220.405 69.9021C220.748 69.5304 220.918 69.047 220.918 68.4669C220.918 67.8795 220.74 67.3962 220.398 67.0169C220.049 66.6302 219.581 66.4369 219.001 66.4369ZM219.001 67.0838C219.366 67.0838 219.648 67.2251 219.856 67.5151C220.034 67.7606 220.123 68.0803 220.123 68.4669C220.123 68.8462 220.034 69.1586 219.856 69.4114C219.648 69.694 219.366 69.8427 219.001 69.8427C218.637 69.8427 218.354 69.694 218.154 69.4114C217.976 69.166 217.894 68.8536 217.894 68.4669C217.894 68.0803 217.976 67.7606 218.154 67.5151C218.354 67.2251 218.637 67.0838 219.001 67.0838ZM223.436 66.4369C222.856 66.4369 222.387 66.6302 222.039 67.0169C221.689 67.3962 221.518 67.8795 221.518 68.4669C221.518 69.047 221.689 69.5304 222.031 69.9021C222.387 70.2888 222.856 70.4897 223.436 70.4897C224.015 70.4897 224.483 70.2888 224.84 69.9021C225.182 69.5304 225.352 69.047 225.352 68.4669C225.352 67.8795 225.174 67.3962 224.833 67.0169C224.483 66.6302 224.015 66.4369 223.436 66.4369ZM223.436 67.0838C223.799 67.0838 224.081 67.2251 224.29 67.5151C224.468 67.7606 224.557 68.0803 224.557 68.4669C224.557 68.8462 224.468 69.1586 224.29 69.4114C224.081 69.694 223.799 69.8427 223.436 69.8427C223.071 69.8427 222.789 69.694 222.588 69.4114C222.41 69.166 222.328 68.8536 222.328 68.4669C222.328 68.0803 222.41 67.7606 222.588 67.5151C222.789 67.2251 223.071 67.0838 223.436 67.0838ZM227.944 66.4369C227.557 66.4369 227.201 66.6079 226.888 66.9649V66.541H226.1V70.3855H226.888V68.0728C226.888 67.8051 226.963 67.5747 227.126 67.3887C227.275 67.1954 227.483 67.0987 227.736 67.0987C228.255 67.0987 228.523 67.3962 228.523 68.006V70.3855H229.311V68.0208C229.311 67.7382 229.385 67.5077 229.534 67.3441C229.682 67.1805 229.861 67.0987 230.084 67.0987C230.381 67.0987 230.604 67.1656 230.738 67.3143C230.871 67.4556 230.938 67.6862 230.938 67.9985V70.3855H231.726V67.8647C231.726 67.4334 231.592 67.0913 231.34 66.831C231.079 66.5632 230.753 66.4369 230.358 66.4369C230.099 66.4369 229.883 66.4815 229.704 66.5782C229.511 66.6749 229.326 66.8458 229.155 67.0838C228.917 66.6525 228.509 66.4369 227.944 66.4369Z" fill="#4E4E4E"/>
<path d="M172.066 63.1125H172.066C169.604 63.1125 167.608 65.1101 167.608 67.5743V67.5743C167.608 70.0385 169.604 72.036 172.066 72.036H172.066C174.529 72.036 176.525 70.0385 176.525 67.5743V67.5743C176.525 65.1101 174.529 63.1125 172.066 63.1125Z" fill="#ED9013"/>
</g>
<defs>
<filter id="filter0_d_0_328" x="0.31366" y="0.0668335" width="293.227" height="297.679" filterUnits="userSpaceOnUse" color-interpolation-filters="sRGB">
<feFlood flood-opacity="0" result="BackgroundImageFix"/>
<feColorMatrix in="SourceAlpha" type="matrix" values="0 0 0 0 0 0 0 0 0 0 0 0 0 0 0 0 0 0 127 0" result="hardAlpha"/>
<feOffset dy="22"/>
<feGaussianBlur stdDeviation="12"/>
<feColorMatrix type="matrix" values="0 0 0 0 0 0 0 0 0 0 0 0 0 0 0 0 0 0 0.09 0"/>
<feBlend mode="normal" in2="BackgroundImageFix" result="effect1_dropShadow_0_328"/>
<feBlend mode="normal" in="SourceGraphic" in2="effect1_dropShadow_0_328" result="shape"/>
</filter>
<filter id="filter1_d_0_328" x="58.3169" y="129.476" width="103.751" height="103.799" filterUnits="userSpaceOnUse" color-interpolation-filters="sRGB">
<feFlood flood-opacity="0" result="BackgroundImageFix"/>
<feColorMatrix in="SourceAlpha" type="matrix" values="0 0 0 0 0 0 0 0 0 0 0 0 0 0 0 0 0 0 127 0" result="hardAlpha"/>
<feOffset dy="11.7787"/>
<feGaussianBlur stdDeviation="8.41335"/>
<feColorMatrix type="matrix" values="0 0 0 0 0.406806 0 0 0 0 0.815575 0 0 0 0 0.841667 0 0 0 0.3 0"/>
<feBlend mode="normal" in2="BackgroundImageFix" result="effect1_dropShadow_0_328"/>
<feBlend mode="normal" in="SourceGraphic" in2="effect1_dropShadow_0_328" result="shape"/>
</filter>
<filter id="filter2_d_0_328" x="111.221" y="173.981" width="76.1282" height="76.1627" filterUnits="userSpaceOnUse" color-interpolation-filters="sRGB">
<feFlood flood-opacity="0" result="BackgroundImageFix"/>
<feColorMatrix in="SourceAlpha" type="matrix" values="0 0 0 0 0 0 0 0 0 0 0 0 0 0 0 0 0 0 127 0" result="hardAlpha"/>
<feOffset dy="12.1152"/>
<feGaussianBlur stdDeviation="6.39415"/>
<feColorMatrix type="matrix" values="0 0 0 0 0.775 0 0 0 0 0.4185 0 0 0 0 0 0 0 0 0.25 0"/>
<feBlend mode="normal" in2="BackgroundImageFix" result="effect1_dropShadow_0_328"/>
<feBlend mode="normal" in="SourceGraphic" in2="effect1_dropShadow_0_328" result="shape"/>
</filter>
<filter id="filter3_d_0_328" x="85.9686" y="76.8844" width="162.355" height="162.425" filterUnits="userSpaceOnUse" color-interpolation-filters="sRGB">
<feFlood flood-opacity="0" result="BackgroundImageFix"/>
<feColorMatrix in="SourceAlpha" type="matrix" values="0 0 0 0 0 0 0 0 0 0 0 0 0 0 0 0 0 0 127 0" result="hardAlpha"/>
<feOffset dy="15.144"/>
<feGaussianBlur stdDeviation="14.8075"/>
<feColorMatrix type="matrix" values="0 0 0 0 0.793083 0 0 0 0 1 0 0 0 0 0.204167 0 0 0 1 0"/>
<feBlend mode="normal" in2="BackgroundImageFix" result="effect1_dropShadow_0_328"/>
<feBlend mode="normal" in="SourceGraphic" in2="effect1_dropShadow_0_328" result="shape"/>
</filter>
<linearGradient id="paint0_linear_0_328" x1="75.1432" y1="164.201" x2="158.385" y2="163.527" gradientUnits="userSpaceOnUse">
<stop stop-color="#27B1FE"/>
<stop offset="1" stop-color="#1DC560"/>
</linearGradient>
<linearGradient id="paint1_linear_0_328" x1="159.059" y1="206.692" x2="135.782" y2="167.923" gradientUnits="userSpaceOnUse">
<stop stop-color="#FF753D"/>
<stop offset="1" stop-color="#FFDB80" stop-opacity="0.76"/>
</linearGradient>
<linearGradient id="paint2_linear_0_328" x1="167.146" y1="108.217" x2="144.874" y2="189.821" gradientUnits="userSpaceOnUse">
<stop stop-color="#96CB00"/>
<stop offset="1" stop-color="#CAFF34"/>
</linearGradient>
</defs>
</svg>
