<svg width="460" height="341" viewBox="0 0 460 341" fill="none" xmlns="http://www.w3.org/2000/svg">
<g filter="url(#filter0_d_0_274)">
<path d="M395.025 24.4979H64.114C41.9914 24.4979 24.0574 42.444 24.0574 64.5817V276.507C24.0574 298.645 41.9914 316.591 64.114 316.591H395.025C417.148 316.591 435.082 298.645 435.082 276.507V64.5817C435.082 42.444 417.148 24.4979 395.025 24.4979Z" fill="white"/>
<path d="M144.485 98.3213C144.009 98.3213 143.622 98.4035 143.34 98.5819C143.012 98.7753 142.805 99.0869 142.723 99.5038L143.503 99.5709C143.548 99.3555 143.659 99.1992 143.838 99.0949C143.986 99.0058 144.187 98.9607 144.432 98.9607C145.012 98.9607 145.302 99.2282 145.302 99.7643V99.9207L144.439 99.9427C143.875 99.9578 143.429 100.069 143.117 100.292C142.775 100.523 142.604 100.858 142.604 101.289C142.604 101.608 142.723 101.869 142.968 102.069C143.191 102.271 143.503 102.374 143.905 102.374C144.246 102.374 144.544 102.308 144.796 102.188C145.019 102.077 145.205 101.921 145.354 101.727V102.271H146.082V99.8165C146.082 99.3475 145.963 98.9907 145.732 98.7452C145.465 98.4626 145.049 98.3213 144.485 98.3213ZM145.302 100.493V100.716C145.302 101.013 145.176 101.266 144.937 101.467C144.7 101.667 144.417 101.772 144.083 101.772C143.883 101.772 143.718 101.719 143.6 101.623C143.473 101.526 143.414 101.408 143.414 101.258C143.414 100.782 143.771 100.53 144.492 100.515L145.302 100.493ZM148.151 97.1839L147.363 97.5106V98.4255H146.65V99.0799H147.363V101.311C147.363 101.616 147.43 101.847 147.578 102.01C147.727 102.18 147.971 102.271 148.299 102.271H148.931V101.616H148.425C148.329 101.616 148.262 101.586 148.217 101.541C148.173 101.489 148.151 101.415 148.151 101.311V99.0799H149.027V98.4255H148.151V97.1839ZM153.845 98.3213C153.251 98.3213 152.79 98.5227 152.456 98.9236C152.143 99.2954 151.987 99.7714 151.987 100.352C151.987 100.947 152.143 101.423 152.463 101.795C152.79 102.18 153.243 102.374 153.831 102.374C154.32 102.374 154.722 102.248 155.019 102.002C155.317 101.749 155.517 101.363 155.606 100.85H154.826C154.752 101.43 154.425 101.727 153.838 101.727C153.496 101.727 153.243 101.601 153.073 101.363C152.886 101.117 152.797 100.775 152.797 100.345C152.797 99.9127 152.886 99.5709 153.08 99.3324C153.266 99.0869 153.518 98.9687 153.845 98.9687C154.113 98.9687 154.328 99.0278 154.492 99.1541C154.655 99.2733 154.759 99.4667 154.811 99.7273H155.591C155.517 99.2513 155.324 98.8945 155.026 98.656C154.73 98.4326 154.335 98.3213 153.845 98.3213ZM158.049 98.3213C157.469 98.3213 157 98.5147 156.652 98.9015C156.302 99.2803 156.131 99.7643 156.131 100.352C156.131 100.932 156.302 101.415 156.644 101.787C157 102.173 157.469 102.374 158.049 102.374C158.629 102.374 159.096 102.173 159.453 101.787C159.795 101.415 159.965 100.932 159.965 100.352C159.965 99.7643 159.787 99.2803 159.446 98.9015C159.096 98.5147 158.629 98.3213 158.049 98.3213ZM158.049 98.9687C158.412 98.9687 158.695 99.11 158.903 99.3996C159.081 99.6451 159.17 99.9648 159.17 100.352C159.17 100.73 159.081 101.043 158.903 101.296C158.695 101.578 158.412 101.727 158.049 101.727C157.684 101.727 157.402 101.578 157.201 101.296C157.023 101.051 156.941 100.738 156.941 100.352C156.941 99.9648 157.023 99.6451 157.201 99.3996C157.402 99.11 157.684 98.9687 158.049 98.9687ZM160.305 98.4255L161.606 102.271H162.334L163.137 99.3926L163.939 102.271H164.667L165.968 98.4255H165.099L164.289 101.334L163.5 98.4255H162.772L161.984 101.334L161.174 98.4255H160.305ZM168.223 98.3213C167.643 98.3213 167.175 98.5147 166.826 98.9015C166.477 99.2803 166.305 99.7643 166.305 100.352C166.305 100.932 166.477 101.415 166.818 101.787C167.175 102.173 167.643 102.374 168.223 102.374C168.802 102.374 169.271 102.173 169.627 101.787C169.97 101.415 170.14 100.932 170.14 100.352C170.14 99.7643 169.962 99.2803 169.62 98.9015C169.271 98.5147 168.802 98.3213 168.223 98.3213ZM168.223 98.9687C168.587 98.9687 168.869 99.11 169.077 99.3996C169.256 99.6451 169.345 99.9648 169.345 100.352C169.345 100.73 169.256 101.043 169.077 101.296C168.869 101.578 168.587 101.727 168.223 101.727C167.859 101.727 167.576 101.578 167.376 101.296C167.198 101.051 167.115 100.738 167.115 100.352C167.115 99.9648 167.198 99.6451 167.376 99.3996C167.576 99.11 167.859 98.9687 168.223 98.9687ZM172.671 98.3213C172.434 98.3213 172.226 98.3885 172.047 98.5368C171.899 98.641 171.772 98.7973 171.676 99.0058V98.4255H170.888V102.271H171.676V100.232C171.676 99.8976 171.772 99.623 171.973 99.4146C172.159 99.2212 172.374 99.125 172.612 99.125C172.791 99.125 172.977 99.1471 173.169 99.2062V98.4185C173.036 98.3514 172.865 98.3213 172.671 98.3213ZM173.653 96.8563V102.271H174.441V100.924L174.879 100.515L176.261 102.271H177.272L175.421 100.01L177.124 98.4255H176.105L174.441 100.01V96.8563H173.653ZM178.274 96.8863C178.118 96.8863 177.992 96.9304 177.888 97.0346C177.784 97.1318 177.732 97.2581 177.732 97.4144C177.732 97.5627 177.784 97.697 177.888 97.8012C177.992 97.8974 178.118 97.9495 178.274 97.9495C178.422 97.9495 178.557 97.8974 178.661 97.8012C178.765 97.697 178.824 97.5707 178.824 97.4144C178.824 97.2581 178.772 97.1318 178.668 97.0346C178.564 96.9304 178.43 96.8863 178.274 96.8863ZM177.881 98.4255V102.271H178.668V98.4255H177.881ZM181.681 98.3213C181.444 98.3213 181.228 98.3664 181.035 98.4706C180.842 98.5668 180.671 98.7081 180.522 98.9015V98.4255H179.734V102.271H180.522V99.9578C180.551 99.6451 180.664 99.3996 180.842 99.2212C181.005 99.0579 181.205 98.9837 181.429 98.9837C182.024 98.9837 182.328 99.3104 182.328 99.9648V102.271H183.116V99.8976C183.116 98.8424 182.632 98.3213 181.681 98.3213ZM185.614 98.3213C185.094 98.3213 184.67 98.4997 184.351 98.8645C184.023 99.2212 183.867 99.6822 183.867 100.262C183.867 100.843 184.023 101.304 184.351 101.653C184.67 102.002 185.094 102.18 185.614 102.18C186.119 102.18 186.506 101.965 186.788 101.541V102.136C186.788 102.858 186.454 103.222 185.785 103.222C185.472 103.222 185.242 103.169 185.101 103.08C184.953 102.984 184.864 102.821 184.819 102.597H184.031C184.105 103.021 184.276 103.334 184.558 103.541C184.841 103.743 185.25 103.847 185.785 103.847C186.974 103.847 187.575 103.237 187.575 102.017V98.4255H186.788V98.9386C186.506 98.5228 186.119 98.3213 185.614 98.3213ZM185.733 98.9607C186.067 98.9607 186.328 99.0729 186.52 99.3104C186.699 99.5409 186.795 99.8606 186.795 100.262C186.795 100.656 186.699 100.969 186.52 101.199C186.328 101.423 186.067 101.534 185.733 101.534C185.346 101.534 185.071 101.4 184.901 101.147C184.751 100.932 184.677 100.634 184.677 100.262C184.677 99.8535 184.766 99.5339 184.96 99.3104C185.138 99.0729 185.398 98.9607 185.733 98.9607Z" fill="#4E4E4E"/>
<path d="M137.166 94.9973H137.166C134.703 94.9973 132.707 96.9949 132.707 99.4591C132.707 101.923 134.703 103.921 137.166 103.921H137.166C139.628 103.921 141.624 101.923 141.624 99.4591C141.624 96.9949 139.628 94.9973 137.166 94.9973Z" fill="#B7F210"/>
<path d="M219.365 98.3213C218.89 98.3213 218.503 98.4035 218.221 98.5819C217.894 98.7753 217.686 99.0869 217.604 99.5038L218.384 99.5709C218.429 99.3555 218.54 99.1991 218.718 99.0949C218.868 99.0057 219.068 98.9606 219.313 98.9606C219.893 98.9606 220.182 99.2282 220.182 99.7643V99.9207L219.321 99.9427C218.756 99.9577 218.31 100.069 217.998 100.292C217.656 100.523 217.486 100.858 217.486 101.289C217.486 101.608 217.604 101.869 217.849 102.069C218.072 102.271 218.384 102.374 218.785 102.374C219.128 102.374 219.424 102.308 219.678 102.188C219.9 102.077 220.086 101.921 220.235 101.727V102.271H220.963V99.8164C220.963 99.3475 220.844 98.9907 220.614 98.7452C220.347 98.4626 219.93 98.3213 219.365 98.3213ZM220.182 100.493V100.716C220.182 101.013 220.056 101.266 219.819 101.467C219.581 101.667 219.298 101.772 218.964 101.772C218.763 101.772 218.6 101.719 218.481 101.623C218.355 101.526 218.295 101.408 218.295 101.258C218.295 100.782 218.652 100.53 219.372 100.515L220.182 100.493ZM223.031 97.1839L222.243 97.5106V98.4255H221.53V99.0799H222.243V101.311C222.243 101.616 222.31 101.847 222.46 102.01C222.608 102.18 222.853 102.271 223.18 102.271H223.812V101.616H223.306C223.21 101.616 223.143 101.586 223.099 101.541C223.054 101.489 223.031 101.415 223.031 101.311V99.0799H223.909V98.4255H223.031V97.1839ZM228.786 98.3213C228.206 98.3213 227.738 98.5147 227.389 98.9015C227.039 99.2803 226.869 99.7643 226.869 100.352C226.869 100.932 227.039 101.415 227.382 101.787C227.738 102.173 228.206 102.374 228.786 102.374C229.365 102.374 229.834 102.173 230.191 101.787C230.532 101.415 230.703 100.932 230.703 100.352C230.703 99.7643 230.525 99.2803 230.183 98.9015C229.834 98.5147 229.365 98.3213 228.786 98.3213ZM228.786 98.9687C229.15 98.9687 229.433 99.11 229.641 99.3996C229.819 99.6451 229.908 99.9647 229.908 100.352C229.908 100.73 229.819 101.043 229.641 101.296C229.433 101.578 229.15 101.727 228.786 101.727C228.422 101.727 228.14 101.578 227.938 101.296C227.76 101.051 227.679 100.738 227.679 100.352C227.679 99.9647 227.76 99.6451 227.938 99.3996C228.14 99.11 228.422 98.9687 228.786 98.9687ZM232.968 96.9604C232.625 96.9604 232.373 97.0496 232.194 97.2431C232.016 97.4214 231.927 97.682 231.927 98.0086V98.4255H231.043V99.0729H231.927V102.271H232.707V99.0729H234.26V102.271H235.047V99.0729H236.616V102.271H237.404V98.4255H235.047V98.0317C235.047 97.8904 235.077 97.7862 235.138 97.7261C235.197 97.6599 235.293 97.6299 235.412 97.6299H236.103V96.9604H235.308C234.966 96.9604 234.706 97.0496 234.528 97.2431C234.349 97.4214 234.26 97.682 234.26 98.0086V98.4255H232.707V98.0317C232.707 97.8904 232.737 97.7862 232.796 97.7261C232.855 97.6599 232.952 97.6299 233.079 97.6299H233.77V96.9604H232.968ZM240.084 98.3213C239.489 98.3213 239.028 98.5227 238.694 98.9236C238.382 99.2953 238.226 99.7713 238.226 100.352C238.226 100.947 238.382 101.423 238.702 101.795C239.028 102.18 239.482 102.374 240.069 102.374C240.559 102.374 240.961 102.248 241.257 102.002C241.555 101.749 241.756 101.363 241.845 100.85H241.065C240.99 101.43 240.663 101.727 240.077 101.727C239.734 101.727 239.482 101.601 239.31 101.363C239.125 101.117 239.036 100.775 239.036 100.345C239.036 99.9126 239.125 99.5709 239.319 99.3324C239.504 99.0869 239.757 98.9687 240.084 98.9687C240.351 98.9687 240.566 99.0278 240.731 99.1541C240.894 99.2733 240.998 99.4667 241.05 99.7272H241.83C241.756 99.2512 241.563 98.8945 241.265 98.656C240.968 98.4325 240.574 98.3213 240.084 98.3213ZM244.145 98.3213C243.581 98.3213 243.128 98.5147 242.8 98.9085C242.459 99.2953 242.296 99.7714 242.296 100.345C242.296 100.976 242.474 101.475 242.83 101.847C243.157 102.195 243.611 102.374 244.175 102.374C244.688 102.374 245.112 102.225 245.446 101.936C245.714 101.697 245.885 101.393 245.974 101.036H245.186C245.082 101.258 244.97 101.43 244.836 101.534C244.666 101.66 244.443 101.727 244.168 101.727C243.856 101.727 243.611 101.623 243.432 101.43C243.254 101.229 243.157 100.939 243.128 100.567H246.041C246.033 99.8826 245.877 99.3475 245.579 98.9606C245.253 98.5297 244.77 98.3213 244.145 98.3213ZM244.168 98.9687C244.792 98.9687 245.142 99.3034 245.216 99.9728H243.143C243.187 99.6451 243.298 99.3996 243.462 99.2282C243.641 99.0498 243.871 98.9687 244.168 98.9687Z" fill="#4E4E4E"/>
<path d="M206.039 94.9973H206.039C203.576 94.9973 201.58 96.9949 201.58 99.4591C201.58 101.923 203.576 103.921 206.039 103.921H206.039C208.501 103.921 210.498 101.923 210.498 99.4591C210.498 96.9949 208.501 94.9973 206.039 94.9973Z" fill="#FFC700"/>
<path d="M281.808 98.3213C281.57 98.3213 281.362 98.3884 281.184 98.5367C281.035 98.641 280.909 98.7973 280.812 99.0057V98.4255H280.025V102.271H280.812V100.232C280.812 99.8976 280.909 99.623 281.11 99.4146C281.296 99.2212 281.511 99.125 281.748 99.125C281.927 99.125 282.113 99.147 282.306 99.2061V98.4185C282.172 98.3513 282.002 98.3213 281.808 98.3213ZM284.417 98.3213C283.852 98.3213 283.399 98.5147 283.072 98.9085C282.73 99.2953 282.567 99.7713 282.567 100.345C282.567 100.976 282.745 101.475 283.101 101.847C283.429 102.195 283.882 102.374 284.447 102.374C284.96 102.374 285.384 102.225 285.718 101.936C285.985 101.697 286.156 101.393 286.245 101.036H285.458C285.354 101.258 285.242 101.43 285.108 101.534C284.937 101.66 284.715 101.727 284.439 101.727C284.127 101.727 283.882 101.623 283.704 101.43C283.525 101.229 283.429 100.939 283.399 100.567H286.312C286.305 99.8826 286.149 99.3474 285.851 98.9606C285.525 98.5297 285.041 98.3213 284.417 98.3213ZM284.439 98.9686C285.063 98.9686 285.413 99.3033 285.487 99.9727H283.414C283.459 99.6451 283.57 99.3995 283.733 99.2282C283.911 99.0498 284.142 98.9686 284.439 98.9686ZM288.827 98.3213C288.441 98.3213 288.084 98.4926 287.772 98.8494V98.4255H286.984V102.271H287.772V99.9577C287.772 99.6902 287.846 99.4597 288.009 99.2733C288.158 99.0799 288.367 98.9837 288.619 98.9837C289.139 98.9837 289.407 99.2803 289.407 99.8906V102.271H290.194V99.9056C290.194 99.623 290.268 99.3925 290.418 99.2282C290.566 99.0648 290.744 98.9837 290.967 98.9837C291.265 98.9837 291.487 99.0498 291.621 99.1991C291.755 99.3404 291.822 99.5709 291.822 99.8825V102.271H292.61V99.7493C292.61 99.3184 292.476 98.9757 292.223 98.7151C291.963 98.4475 291.636 98.3213 291.242 98.3213C290.982 98.3213 290.767 98.3664 290.588 98.4626C290.395 98.5598 290.209 98.7301 290.038 98.9686C289.801 98.5367 289.392 98.3213 288.827 98.3213ZM295.269 98.3213C294.69 98.3213 294.222 98.5147 293.873 98.9015C293.523 99.2803 293.353 99.7643 293.353 100.352C293.353 100.932 293.523 101.415 293.866 101.787C294.222 102.173 294.69 102.374 295.269 102.374C295.849 102.374 296.317 102.173 296.674 101.787C297.016 101.415 297.187 100.932 297.187 100.352C297.187 99.7643 297.009 99.2803 296.666 98.9015C296.317 98.5147 295.849 98.3213 295.269 98.3213ZM295.269 98.9686C295.634 98.9686 295.916 99.1099 296.124 99.3995C296.303 99.6451 296.392 99.9647 296.392 100.352C296.392 100.73 296.303 101.043 296.124 101.296C295.916 101.578 295.634 101.727 295.269 101.727C294.905 101.727 294.624 101.578 294.422 101.296C294.244 101.051 294.162 100.738 294.162 100.352C294.162 99.9647 294.244 99.6451 294.422 99.3995C294.624 99.1099 294.905 98.9686 295.269 98.9686ZM299.102 97.1839L298.314 97.5106V98.4255H297.601V99.0799H298.314V101.311C298.314 101.616 298.381 101.847 298.529 102.01C298.678 102.18 298.924 102.271 299.25 102.271H299.882V101.616H299.376C299.28 101.616 299.213 101.586 299.169 101.541C299.124 101.489 299.102 101.415 299.102 101.311V99.0799H299.978V98.4255H299.102V97.1839ZM302.24 98.3213C301.676 98.3213 301.222 98.5147 300.895 98.9085C300.553 99.2953 300.39 99.7713 300.39 100.345C300.39 100.976 300.568 101.475 300.924 101.847C301.252 102.195 301.706 102.374 302.27 102.374C302.783 102.374 303.207 102.225 303.541 101.936C303.809 101.697 303.979 101.393 304.068 101.036H303.281C303.177 101.258 303.066 101.43 302.931 101.534C302.76 101.66 302.538 101.727 302.262 101.727C301.951 101.727 301.706 101.623 301.527 101.43C301.348 101.229 301.252 100.939 301.222 100.567H304.135C304.128 99.8826 303.972 99.3474 303.674 98.9606C303.348 98.5297 302.864 98.3213 302.24 98.3213ZM302.262 98.9686C302.887 98.9686 303.236 99.3033 303.311 99.9727H301.237C301.282 99.6451 301.393 99.3995 301.556 99.2282C301.735 99.0498 301.965 98.9686 302.262 98.9686Z" fill="#4E4E4E"/>
<path d="M272.889 99.4591C272.889 96.9949 270.893 94.9973 268.43 94.9973C265.968 94.9973 263.971 96.9949 263.971 99.4591C263.971 101.923 265.968 103.921 268.43 103.921C270.893 103.921 272.889 101.923 272.889 99.4591Z" fill="#A9D6FF"/>
<path d="M334.637 98.4255L336.064 102.271H336.851L338.278 98.4255H337.424L336.458 101.288L335.491 98.4255H334.637ZM340.492 98.3213C340.018 98.3213 339.631 98.4035 339.349 98.5818C339.021 98.7752 338.813 99.0869 338.732 99.5038L339.512 99.5709C339.556 99.3555 339.668 99.1991 339.846 99.0949C339.995 99.0057 340.196 98.9606 340.441 98.9606C341.02 98.9606 341.311 99.2282 341.311 99.7643V99.9206L340.448 99.9427C339.884 99.9577 339.438 100.069 339.125 100.292C338.784 100.523 338.613 100.858 338.613 101.288C338.613 101.608 338.732 101.869 338.977 102.069C339.2 102.271 339.512 102.374 339.914 102.374C340.255 102.374 340.552 102.308 340.805 102.188C341.028 102.077 341.213 101.921 341.363 101.727V102.271H342.091V99.8164C342.091 99.3474 341.971 98.9907 341.741 98.7452C341.474 98.4626 341.057 98.3213 340.492 98.3213ZM341.311 100.493V100.716C341.311 101.013 341.184 101.266 340.946 101.467C340.709 101.667 340.426 101.772 340.092 101.772C339.891 101.772 339.727 101.719 339.608 101.623C339.482 101.526 339.423 101.408 339.423 101.258C339.423 100.782 339.779 100.53 340.5 100.515L341.311 100.493ZM344.701 98.3213C344.106 98.3213 343.646 98.5227 343.311 98.9235C343 99.2953 342.844 99.7713 342.844 100.352C342.844 100.947 343 101.423 343.319 101.795C343.646 102.18 344.099 102.374 344.686 102.374C345.177 102.374 345.579 102.248 345.876 102.002C346.172 101.749 346.374 101.363 346.463 100.85H345.683C345.608 101.43 345.281 101.727 344.694 101.727C344.352 101.727 344.099 101.601 343.928 101.363C343.743 101.117 343.654 100.775 343.654 100.345C343.654 99.9126 343.743 99.5709 343.936 99.3324C344.122 99.0869 344.375 98.9687 344.701 98.9687C344.969 98.9687 345.184 99.0278 345.348 99.154C345.511 99.2733 345.616 99.4667 345.668 99.7272H346.448C346.374 99.2512 346.18 98.8945 345.883 98.656C345.586 98.4325 345.192 98.3213 344.701 98.3213ZM348.867 98.3213C348.392 98.3213 348.005 98.4035 347.723 98.5818C347.396 98.7752 347.188 99.0869 347.107 99.5038L347.887 99.5709C347.931 99.3555 348.043 99.1991 348.221 99.0949C348.37 99.0057 348.57 98.9606 348.815 98.9606C349.395 98.9606 349.685 99.2282 349.685 99.7643V99.9206L348.823 99.9427C348.258 99.9577 347.812 100.069 347.5 100.292C347.158 100.523 346.988 100.858 346.988 101.288C346.988 101.608 347.107 101.869 347.351 102.069C347.574 102.271 347.887 102.374 348.287 102.374C348.63 102.374 348.927 102.308 349.18 102.188C349.403 102.077 349.588 101.921 349.736 101.727V102.271H350.465V99.8164C350.465 99.3474 350.346 98.9907 350.116 98.7452C349.849 98.4626 349.432 98.3213 348.867 98.3213ZM349.685 100.493V100.716C349.685 101.013 349.558 101.266 349.321 101.467C349.083 101.667 348.8 101.772 348.467 101.772C348.265 101.772 348.102 101.719 347.983 101.623C347.857 101.526 347.798 101.408 347.798 101.258C347.798 100.782 348.154 100.53 348.875 100.515L349.685 100.493ZM352.533 97.1839L351.746 97.5106V98.4255H351.032V99.0799H351.746V101.311C351.746 101.616 351.812 101.847 351.962 102.01C352.11 102.18 352.355 102.271 352.683 102.271H353.313V101.616H352.809C352.712 101.616 352.645 101.586 352.6 101.541C352.555 101.489 352.533 101.415 352.533 101.311V99.0799H353.411V98.4255H352.533V97.1839ZM354.602 96.8863C354.446 96.8863 354.32 96.9304 354.216 97.0346C354.112 97.1318 354.06 97.2581 354.06 97.4144C354.06 97.5627 354.112 97.697 354.216 97.8012C354.32 97.8974 354.446 97.9495 354.602 97.9495C354.751 97.9495 354.885 97.8974 354.989 97.8012C355.092 97.697 355.152 97.5707 355.152 97.4144C355.152 97.2581 355.1 97.1318 354.996 97.0346C354.892 96.9304 354.759 96.8863 354.602 96.8863ZM354.208 98.4255V102.271H354.996V98.4255H354.208ZM357.831 98.3213C357.251 98.3213 356.783 98.5147 356.434 98.9015C356.084 99.2803 355.913 99.7643 355.913 100.352C355.913 100.932 356.084 101.415 356.426 101.787C356.783 102.173 357.251 102.374 357.831 102.374C358.411 102.374 358.878 102.173 359.235 101.787C359.577 101.415 359.748 100.932 359.748 100.352C359.748 99.7643 359.569 99.2803 359.228 98.9015C358.878 98.5147 358.411 98.3213 357.831 98.3213ZM357.831 98.9687C358.194 98.9687 358.477 99.1099 358.685 99.3995C358.863 99.6451 358.952 99.9647 358.952 100.352C358.952 100.73 358.863 101.043 358.685 101.296C358.477 101.578 358.194 101.727 357.831 101.727C357.466 101.727 357.184 101.578 356.984 101.296C356.805 101.051 356.723 100.738 356.723 100.352C356.723 99.9647 356.805 99.6451 356.984 99.3995C357.184 99.1099 357.466 98.9687 357.831 98.9687ZM362.443 98.3213C362.205 98.3213 361.99 98.3664 361.796 98.4706C361.603 98.5668 361.433 98.7081 361.284 98.9015V98.4255H360.497V102.271H361.284V99.9577C361.314 99.6451 361.425 99.3996 361.603 99.2212C361.766 99.0578 361.968 98.9837 362.19 98.9837C362.785 98.9837 363.089 99.3104 363.089 99.9647V102.271H363.877V99.8976C363.877 98.8424 363.395 98.3213 362.443 98.3213ZM366.212 98.3213C365.751 98.3213 365.373 98.4185 365.082 98.6189C364.793 98.8123 364.652 99.0869 364.652 99.4366C364.652 99.7643 364.8 100.024 365.097 100.21C365.275 100.33 365.595 100.441 366.048 100.545C366.442 100.634 366.702 100.708 366.822 100.768C367.044 100.872 367.163 101.021 367.163 101.206C367.163 101.549 366.851 101.727 366.242 101.727C365.944 101.727 365.736 101.675 365.603 101.578C365.469 101.475 365.373 101.289 365.327 101.028H364.554C364.645 101.921 365.208 102.374 366.264 102.374C367.401 102.374 367.973 101.965 367.973 101.154C367.973 100.813 367.817 100.545 367.513 100.352C367.304 100.217 366.978 100.091 366.539 99.9868C366.153 99.8906 365.9 99.8164 365.766 99.7563C365.558 99.6601 365.454 99.5489 365.454 99.4146C365.454 99.2663 365.521 99.147 365.662 99.0729C365.781 98.9977 365.959 98.9687 366.197 98.9687C366.465 98.9687 366.672 99.0127 366.807 99.1019C366.933 99.1841 367.022 99.3254 367.082 99.5338H367.847C367.758 98.7231 367.208 98.3213 366.212 98.3213Z" fill="#4E4E4E"/>
<path d="M327.909 99.4591C327.909 96.9949 325.913 94.9973 323.451 94.9973C320.988 94.9973 318.992 96.9949 318.992 99.4591C318.992 101.923 320.988 103.921 323.451 103.921C325.913 103.921 327.909 101.923 327.909 99.4591Z" fill="#FEA5DB"/>
<path d="M70.7684 287.542C69.8922 287.542 69.1872 287.334 68.6535 286.917C68.1297 286.49 67.8683 285.929 67.8683 285.233C67.8683 284.507 68.1778 283.898 68.7977 283.406C69.4165 282.914 70.3138 282.604 71.4895 282.476L73.7326 282.203V281.882C73.7326 281.337 73.5454 280.904 73.1718 280.584C72.7973 280.253 72.2796 280.087 71.6176 280.087C70.9978 280.087 70.5061 280.231 70.1436 280.519C69.7801 280.798 69.6038 281.188 69.6148 281.69H68.2689C68.2689 280.835 68.5733 280.157 69.1822 279.654C69.7911 279.141 70.6082 278.884 71.6337 278.884C72.6801 278.884 73.5133 279.163 74.1332 279.718C74.7521 280.263 75.0625 280.995 75.0625 281.914V287.286H73.7326V286.099H73.5884C72.9896 287.061 72.0503 287.542 70.7684 287.542ZM70.9607 286.436C71.5055 286.436 71.9862 286.335 72.4028 286.131C72.8193 285.929 73.1448 285.645 73.3801 285.281C73.6145 284.919 73.7326 284.512 73.7326 284.063V283.341L71.4895 283.598C70.6983 283.694 70.1165 283.887 69.743 284.175C69.3795 284.454 69.1982 284.795 69.1982 285.201C69.1982 285.586 69.3524 285.891 69.6629 286.115C69.9833 286.33 70.4159 286.436 70.9607 286.436ZM81.803 278.868C82.5831 278.868 83.2881 279.055 83.918 279.429C84.5589 279.804 85.0616 280.322 85.4242 280.984C85.7987 281.648 85.9849 282.395 85.9849 283.229C85.9849 284.063 85.8037 284.811 85.4402 285.474C85.0777 286.137 84.5749 286.66 83.934 287.045C83.3042 287.42 82.5992 287.606 81.8191 287.606C81.1681 287.606 80.5803 287.473 80.0566 287.205C79.5438 286.939 79.1383 286.564 78.8388 286.083H78.6946V290.973H77.3648V279.189H78.6946V280.423H78.8388C79.1383 279.932 79.5388 279.552 80.0405 279.285C80.5533 279.007 81.1411 278.868 81.803 278.868ZM81.6588 280.071C81.082 280.071 80.5643 280.21 80.1046 280.487C79.656 280.766 79.2985 281.145 79.0311 281.626C78.7748 282.107 78.6466 282.642 78.6466 283.229C78.6466 283.817 78.7748 284.358 79.0311 284.849C79.2985 285.33 79.662 285.709 80.1207 285.987C80.5803 286.265 81.093 286.404 81.6588 286.404C82.2256 286.404 82.7323 286.265 83.181 285.987C83.6406 285.709 83.9981 285.33 84.2545 284.849C84.5219 284.358 84.6551 283.817 84.6551 283.229C84.6551 282.631 84.5269 282.091 84.2705 281.61C84.0142 281.129 83.6566 280.755 83.197 280.487C82.7383 280.21 82.2256 280.071 81.6588 280.071ZM88.0368 279.189H89.3347V280.279H89.4789C89.6601 279.916 89.9535 279.617 90.3601 279.381C90.7657 279.147 91.1933 279.028 91.6419 279.028C92.0475 279.028 92.379 279.099 92.6353 279.237V280.471C92.2608 280.311 91.8602 280.231 91.4336 280.231C90.8248 280.231 90.3281 280.482 89.9435 280.984C89.559 281.476 89.3667 282.123 89.3667 282.925V287.286H88.0368V279.189ZM95.1429 277.649C94.8655 277.649 94.6362 277.559 94.4539 277.377C94.2726 277.196 94.1815 276.966 94.1815 276.687C94.1815 276.421 94.2726 276.201 94.4539 276.03C94.6362 275.849 94.8655 275.758 95.1429 275.758C95.4213 275.758 95.6456 275.844 95.8158 276.014C95.9981 276.185 96.0882 276.41 96.0882 276.687C96.0882 276.966 95.9981 277.196 95.8158 277.377C95.6456 277.559 95.4213 277.649 95.1429 277.649ZM94.4699 279.189H95.7998V287.286H94.4699V279.189ZM98.3945 275.501H99.7243V287.286H98.3945V275.501Z" fill="black" fill-opacity="0.3"/>
<path d="M139.23 279.189H140.512V280.263H140.672C140.906 279.836 141.227 279.499 141.633 279.253C142.05 278.996 142.515 278.868 143.027 278.868C143.593 278.868 144.117 279.012 144.598 279.301C145.078 279.59 145.436 279.969 145.671 280.439H145.815C146.104 279.948 146.477 279.569 146.937 279.301C147.396 279.023 147.924 278.884 148.523 278.884C149.153 278.884 149.714 279.039 150.206 279.349C150.707 279.649 151.097 280.071 151.375 280.616C151.653 281.151 151.792 281.765 151.792 282.46V287.286H150.462V282.444C150.462 281.76 150.264 281.193 149.869 280.744C149.474 280.295 148.972 280.071 148.363 280.071C147.711 280.071 147.177 280.295 146.761 280.744C146.354 281.183 146.152 281.749 146.152 282.444V287.286H144.822V282.444C144.822 281.728 144.63 281.156 144.245 280.728C143.871 280.29 143.369 280.071 142.739 280.071C142.087 280.071 141.558 280.29 141.153 280.728C140.757 281.156 140.56 281.728 140.56 282.444V287.286H139.23V279.189ZM156.353 287.542C155.478 287.542 154.773 287.334 154.238 286.917C153.716 286.49 153.453 285.929 153.453 285.233C153.453 284.507 153.764 283.898 154.383 283.406C155.002 282.915 155.9 282.604 157.074 282.476L159.317 282.203V281.882C159.317 281.337 159.131 280.904 158.757 280.584C158.383 280.253 157.865 280.087 157.202 280.087C156.584 280.087 156.092 280.231 155.728 280.52C155.366 280.798 155.19 281.188 155.2 281.69H153.854C153.854 280.835 154.158 280.157 154.767 279.654C155.376 279.141 156.193 278.884 157.219 278.884C158.266 278.884 159.099 279.163 159.718 279.718C160.338 280.263 160.647 280.995 160.647 281.914V287.286H159.317V286.099H159.173C158.575 287.061 157.635 287.542 156.353 287.542ZM156.546 286.436C157.09 286.436 157.571 286.335 157.988 286.131C158.404 285.929 158.731 285.645 158.965 285.281C159.2 284.919 159.317 284.512 159.317 284.063V283.341L157.074 283.598C156.284 283.694 155.702 283.887 155.328 284.175C154.965 284.454 154.783 284.795 154.783 285.201C154.783 285.586 154.938 285.891 155.248 286.115C155.568 286.33 156.001 286.436 156.546 286.436ZM163.721 290.877C163.517 290.877 163.298 290.851 163.064 290.797C162.828 290.755 162.62 290.696 162.439 290.621V289.45C162.844 289.611 163.202 289.691 163.512 289.691C163.833 289.691 164.105 289.601 164.33 289.418C164.554 289.248 164.73 289.028 164.858 288.761C164.996 288.504 165.152 288.163 165.323 287.735L165.515 287.27L161.91 279.189H163.304L166.076 285.522H166.236L168.608 279.189H170.034L166.829 287.414C166.509 288.216 166.23 288.841 165.996 289.29C165.761 289.739 165.456 290.114 165.083 290.412C164.719 290.723 164.265 290.877 163.721 290.877Z" fill="black" fill-opacity="0.3"/>
<path d="M208.765 277.65C208.487 277.65 208.258 277.559 208.076 277.377C207.894 277.196 207.804 276.966 207.804 276.687C207.804 276.421 207.894 276.201 208.076 276.03C208.258 275.849 208.487 275.758 208.765 275.758C209.043 275.758 209.272 275.849 209.454 276.03C209.636 276.201 209.727 276.421 209.727 276.687C209.727 276.966 209.636 277.196 209.454 277.377C209.272 277.559 209.043 277.65 208.765 277.65ZM207.259 290.893C206.714 290.893 206.244 290.824 205.849 290.685V289.546C206.148 289.643 206.495 289.691 206.891 289.691C207.253 289.691 207.548 289.573 207.772 289.338C207.996 289.103 208.108 288.793 208.108 288.408V279.189H209.438V288.408C209.438 289.136 209.23 289.729 208.813 290.188C208.407 290.659 207.889 290.893 207.259 290.893ZM219.399 287.286H218.069V286.179H217.909C217.631 286.618 217.268 286.96 216.82 287.205C216.381 287.452 215.9 287.574 215.378 287.574C214.705 287.574 214.112 287.425 213.599 287.125C213.086 286.816 212.691 286.394 212.414 285.859C212.146 285.314 212.013 284.699 212.013 284.015V279.189H213.343V284.015C213.343 284.72 213.535 285.293 213.92 285.73C214.314 286.158 214.854 286.372 215.538 286.372C215.987 286.372 216.403 286.266 216.788 286.051C217.182 285.838 217.493 285.544 217.717 285.169C217.951 284.784 218.069 284.363 218.069 283.903V279.189H219.399V287.286ZM221.874 279.189H223.204V280.295H223.364C223.652 279.846 224.016 279.499 224.454 279.253C224.891 279.007 225.378 278.884 225.912 278.884C226.585 278.884 227.172 279.039 227.674 279.349C228.187 279.649 228.582 280.071 228.86 280.616C229.137 281.151 229.276 281.76 229.276 282.444V287.286H227.946V282.444C227.946 281.749 227.749 281.183 227.354 280.744C226.958 280.306 226.419 280.087 225.735 280.087C225.287 280.087 224.865 280.194 224.47 280.407C224.085 280.622 223.776 280.92 223.54 281.305C223.316 281.68 223.204 282.097 223.204 282.556V287.286H221.874V279.189ZM235.517 287.606C234.684 287.606 233.936 287.414 233.274 287.029C232.611 286.644 232.093 286.115 231.72 285.442C231.345 284.758 231.159 283.989 231.159 283.133C231.159 282.321 231.34 281.594 231.704 280.952C232.077 280.301 232.59 279.793 233.242 279.429C233.893 279.055 234.63 278.868 235.453 278.868C236.264 278.868 236.991 279.055 237.632 279.429C238.283 279.793 238.791 280.301 239.154 280.952C239.517 281.594 239.699 282.326 239.699 283.149C239.699 283.384 239.693 283.561 239.683 283.678H232.521C232.617 284.502 232.937 285.164 233.482 285.666C234.037 286.158 234.726 286.404 235.549 286.404C236.147 286.404 236.692 286.266 237.183 285.987C237.685 285.698 238.065 285.314 238.321 284.833L239.427 285.394C239.095 286.089 238.582 286.634 237.888 287.029C237.204 287.414 236.414 287.606 235.517 287.606ZM238.305 282.508C238.187 281.77 237.861 281.183 237.328 280.744C236.804 280.295 236.158 280.071 235.389 280.071C234.641 280.071 234.005 280.295 233.482 280.744C232.97 281.193 232.654 281.781 232.537 282.508H238.305Z" fill="black" fill-opacity="0.3"/>
<path d="M286.496 277.649C286.219 277.649 285.988 277.559 285.807 277.377C285.626 277.196 285.535 276.966 285.535 276.687C285.535 276.421 285.626 276.201 285.807 276.03C285.988 275.849 286.219 275.758 286.496 275.758C286.774 275.758 287.004 275.849 287.185 276.03C287.366 276.201 287.457 276.421 287.457 276.687C287.457 276.966 287.366 277.196 287.185 277.377C287.004 277.559 286.774 277.649 286.496 277.649ZM284.99 290.893C284.445 290.893 283.976 290.824 283.58 290.685V289.546C283.879 289.643 284.226 289.691 284.621 289.691C284.985 289.691 285.278 289.573 285.503 289.338C285.727 289.103 285.839 288.793 285.839 288.408V279.189H287.169V288.408C287.169 289.136 286.961 289.729 286.544 290.188C286.139 290.659 285.62 290.893 284.99 290.893ZM297.13 287.286H295.8V286.179H295.64C295.362 286.618 294.999 286.96 294.55 287.205C294.112 287.452 293.631 287.574 293.108 287.574C292.436 287.574 291.843 287.425 291.33 287.125C290.817 286.816 290.422 286.394 290.144 285.859C289.877 285.313 289.744 284.699 289.744 284.015V279.189H291.074V284.015C291.074 284.72 291.266 285.292 291.65 285.73C292.045 286.158 292.585 286.372 293.269 286.372C293.717 286.372 294.134 286.265 294.518 286.051C294.913 285.838 295.223 285.544 295.448 285.169C295.682 284.784 295.8 284.363 295.8 283.903V279.189H297.13V287.286ZM299.605 275.501H300.935V287.286H299.605V275.501ZM304.176 290.877C303.974 290.877 303.754 290.851 303.519 290.797C303.285 290.755 303.077 290.696 302.894 290.621V289.45C303.301 289.611 303.658 289.691 303.968 289.691C304.288 289.691 304.561 289.6 304.785 289.418C305.009 289.248 305.185 289.028 305.314 288.761C305.453 288.504 305.608 288.162 305.778 287.735L305.971 287.27L302.366 279.189H303.76L306.531 285.522H306.692L309.063 279.189H310.489L307.284 287.414C306.964 288.216 306.687 288.841 306.451 289.29C306.217 289.739 305.913 290.114 305.538 290.412C305.175 290.723 304.721 290.877 304.176 290.877Z" fill="black" fill-opacity="0.3"/>
<path d="M349.646 287.542C348.77 287.542 348.065 287.334 347.531 286.917C347.008 286.49 346.746 285.929 346.746 285.233C346.746 284.507 347.056 283.898 347.676 283.405C348.295 282.914 349.193 282.604 350.367 282.476L352.61 282.203V281.882C352.61 281.337 352.423 280.904 352.05 280.584C351.676 280.253 351.157 280.087 350.496 280.087C349.876 280.087 349.385 280.231 349.021 280.519C348.658 280.798 348.482 281.188 348.493 281.69H347.147C347.147 280.835 347.451 280.157 348.06 279.654C348.669 279.141 349.486 278.884 350.512 278.884C351.558 278.884 352.391 279.163 353.011 279.718C353.631 280.263 353.94 280.995 353.94 281.914V287.286H352.61V286.099H352.466C351.868 287.061 350.928 287.542 349.646 287.542ZM349.839 286.436C350.383 286.436 350.864 286.335 351.281 286.131C351.697 285.929 352.023 285.645 352.258 285.281C352.493 284.919 352.61 284.512 352.61 284.063V283.341L350.367 283.598C349.577 283.694 348.994 283.887 348.621 284.175C348.257 284.454 348.076 284.795 348.076 285.201C348.076 285.586 348.231 285.891 348.541 286.115C348.861 286.33 349.294 286.436 349.839 286.436ZM363.47 287.286H362.14V286.179H361.98C361.701 286.618 361.339 286.96 360.89 287.205C360.452 287.452 359.971 287.574 359.448 287.574C358.775 287.574 358.182 287.425 357.67 287.125C357.157 286.816 356.761 286.394 356.484 285.859C356.217 285.313 356.083 284.699 356.083 284.015V279.189H357.413V284.015C357.413 284.72 357.606 285.292 357.99 285.73C358.385 286.158 358.924 286.372 359.608 286.372C360.057 286.372 360.474 286.265 360.858 286.051C361.253 285.838 361.563 285.544 361.787 285.169C362.022 284.784 362.14 284.362 362.14 283.903V279.189H363.47V287.286ZM369.854 291.294C368.818 291.294 367.931 291.054 367.194 290.572C366.468 290.103 365.966 289.445 365.688 288.6L367.018 288.103C367.232 288.735 367.59 289.221 368.091 289.562C368.594 289.915 369.203 290.091 369.918 290.091C370.805 290.091 371.51 289.825 372.033 289.29C372.568 288.756 372.834 288.039 372.834 287.141V286.051H372.674C371.916 287.013 370.933 287.494 369.726 287.494C368.925 287.494 368.204 287.313 367.563 286.949C366.922 286.586 366.42 286.078 366.056 285.426C365.704 284.774 365.528 284.042 365.528 283.229C365.528 282.406 365.71 281.664 366.073 281C366.436 280.338 366.933 279.82 367.563 279.445C368.204 279.071 368.925 278.884 369.726 278.884C370.954 278.884 371.943 279.371 372.69 280.343H372.85V279.189H374.164V287.141C374.164 287.975 373.988 288.703 373.635 289.322C373.283 289.953 372.781 290.439 372.129 290.781C371.478 291.124 370.719 291.294 369.854 291.294ZM369.87 286.324C370.447 286.324 370.965 286.19 371.424 285.923C371.884 285.656 372.241 285.287 372.498 284.816C372.754 284.346 372.882 283.817 372.882 283.229C372.882 282.631 372.749 282.091 372.482 281.61C372.225 281.129 371.868 280.755 371.408 280.487C370.949 280.21 370.437 280.071 369.87 280.071C369.293 280.071 368.775 280.21 368.316 280.487C367.857 280.755 367.499 281.129 367.242 281.61C366.986 282.091 366.858 282.631 366.858 283.229C366.858 283.817 366.986 284.346 367.242 284.816C367.499 285.287 367.857 285.656 368.316 285.923C368.775 286.19 369.293 286.324 369.87 286.324ZM383.842 287.286H382.512V286.179H382.352C382.074 286.618 381.711 286.96 381.262 287.205C380.824 287.452 380.344 287.574 379.82 287.574C379.147 287.574 378.554 287.425 378.041 287.125C377.529 286.816 377.134 286.394 376.856 285.859C376.589 285.313 376.455 284.699 376.455 284.015V279.189H377.785V284.015C377.785 284.72 377.977 285.292 378.362 285.73C378.757 286.158 379.297 286.372 379.98 286.372C380.429 286.372 380.845 286.265 381.23 286.051C381.625 285.838 381.935 285.544 382.159 285.169C382.395 284.784 382.512 284.362 382.512 283.903V279.189H383.842V287.286ZM389.634 287.606C388.469 287.606 387.567 287.34 386.926 286.805C386.285 286.259 385.965 285.506 385.965 284.544H387.246C387.257 285.132 387.476 285.602 387.903 285.955C388.341 286.308 388.934 286.484 389.682 286.484C390.291 286.484 390.776 286.367 391.14 286.131C391.503 285.886 391.685 285.549 391.685 285.121C391.685 284.79 391.584 284.544 391.38 284.384C391.177 284.213 390.937 284.095 390.659 284.031C390.382 283.967 389.949 283.898 389.361 283.822C388.389 283.705 387.604 283.481 387.006 283.149C386.408 282.807 386.109 282.225 386.109 281.401C386.109 280.622 386.402 280.006 386.99 279.557C387.588 279.098 388.379 278.868 389.361 278.868C390.376 278.868 391.193 279.12 391.813 279.622C392.443 280.114 392.758 280.776 392.758 281.61H391.46C391.449 281.119 391.252 280.728 390.868 280.439C390.483 280.141 389.975 279.99 389.345 279.99C388.758 279.99 388.283 280.114 387.919 280.359C387.556 280.606 387.375 280.936 387.375 281.353C387.375 281.664 387.471 281.904 387.663 282.075C387.866 282.235 388.107 282.347 388.384 282.411C388.672 282.466 389.1 282.524 389.666 282.588C390.296 282.663 390.841 282.78 391.3 282.941C391.77 283.091 392.16 283.341 392.47 283.694C392.779 284.037 392.934 284.507 392.934 285.105C392.934 285.897 392.641 286.511 392.053 286.949C391.476 287.388 390.67 287.606 389.634 287.606ZM397.981 287.59C397.308 287.59 396.768 287.372 396.362 286.933C395.956 286.495 395.753 285.918 395.753 285.201V280.247H394.44V279.189H395.753L396.058 276.575H397.099L397.083 279.189H399.166V280.247H397.083V285.153C397.083 285.538 397.195 285.854 397.42 286.099C397.644 286.346 397.949 286.468 398.333 286.468C398.461 286.468 398.616 286.452 398.798 286.42C398.979 286.388 399.144 286.351 399.294 286.308V287.382C398.878 287.521 398.439 287.59 397.981 287.59Z" fill="black" fill-opacity="0.3"/>
<g filter="url(#filter1_d_0_274)">
<path d="M148.386 137.144C148.386 132.647 152.028 129.001 156.522 129.001C161.016 129.001 164.658 132.647 164.658 137.144V142.295H148.386V137.144Z" fill="#FFA5DB"/>
</g>
<g filter="url(#filter2_d_0_274)">
<path d="M219.971 137.144C219.971 132.647 223.614 129.001 228.108 129.001C232.601 129.001 236.244 132.647 236.244 137.144V151.197H219.971V137.144Z" fill="#FFA5DB"/>
</g>
<g filter="url(#filter3_d_0_274)">
<path d="M291.556 137.143C291.556 132.647 295.199 129.001 299.693 129.001C304.186 129.001 307.829 132.647 307.829 137.143V139.32H291.556V137.143Z" fill="#FFA5DB"/>
</g>
<g filter="url(#filter4_d_0_274)">
<path d="M363.142 137.144C363.142 132.647 366.785 129.001 371.279 129.001C375.772 129.001 379.414 132.647 379.414 137.144V154.52H363.142V137.144Z" fill="#FFA5DB"/>
</g>
<g filter="url(#filter5_d_0_274)">
<path d="M76.8 137.144C76.8 132.647 80.4431 129.001 84.9364 129.001C89.4298 129.001 93.0729 132.647 93.0729 137.144V163.919H76.8V137.144Z" fill="#A9D6FF"/>
</g>
<g filter="url(#filter6_d_0_274)">
<path d="M148.386 142.295H164.658V163.919H148.386V142.295Z" fill="#A9D6FF"/>
</g>
<g filter="url(#filter7_d_0_274)">
<path d="M219.971 151.197H236.244V191.207H219.971V151.197Z" fill="#A9D6FF"/>
</g>
<g filter="url(#filter8_d_0_274)">
<path d="M291.556 139.32H307.829V230.41H291.556V139.32Z" fill="#A9D6FF"/>
</g>
<g filter="url(#filter9_d_0_274)">
<path d="M363.142 154.52H379.414V163.919H363.142V154.52Z" fill="#A9D6FF"/>
</g>
<g filter="url(#filter10_d_0_274)">
<path d="M76.8 163.919H93.0729V195.998H76.8V163.919Z" fill="#FFC700"/>
</g>
<g filter="url(#filter11_d_0_274)">
<path d="M148.386 163.919H164.658V176.05H148.386V163.919Z" fill="#FFC700"/>
</g>
<g filter="url(#filter12_d_0_274)">
<path d="M219.971 191.207H236.244V230.41H219.971V191.207Z" fill="#FFC700"/>
</g>
<g filter="url(#filter13_d_0_274)">
<path d="M291.556 230.41H307.829V244.396H291.556V230.41Z" fill="#FFC700"/>
</g>
<g filter="url(#filter14_d_0_274)">
<path d="M363.142 163.919H379.414V186.348H363.142V163.919Z" fill="#FFC700"/>
</g>
<g filter="url(#filter15_d_0_274)">
<path d="M76.8 195.998H93.0729V254.254C93.0729 258.75 89.4298 262.396 84.9364 262.396C80.4431 262.396 76.8 258.75 76.8 254.254V195.998Z" fill="#CAFF34"/>
</g>
<g filter="url(#filter16_d_0_274)">
<path d="M148.386 176.05H164.658V254.254C164.658 258.75 161.016 262.396 156.522 262.396C152.028 262.396 148.386 258.75 148.386 254.254V176.05Z" fill="#CAFF34"/>
</g>
<g filter="url(#filter17_d_0_274)">
<path d="M219.971 230.41H236.244V257.099C236.244 261.595 232.601 265.24 228.108 265.24C223.614 265.24 219.971 261.595 219.971 257.099V230.41Z" fill="#CAFF34"/>
</g>
<g filter="url(#filter18_d_0_274)">
<path d="M291.556 244.396H307.829V254.256C307.829 258.753 304.186 262.399 299.693 262.399C295.199 262.399 291.556 258.753 291.556 254.256V244.396Z" fill="#CAFF34"/>
</g>
<g filter="url(#filter19_d_0_274)">
<path d="M363.142 186.348H379.414V254.254C379.414 258.751 375.772 262.396 371.279 262.396C366.785 262.396 363.142 258.751 363.142 254.254V186.348Z" fill="#CAFF34"/>
</g>
<path d="M185.457 75.715C183.791 75.715 182.499 75.3332 181.582 74.5686C180.665 73.788 180.206 72.7097 180.206 71.3328H182.041C182.056 72.1736 182.369 72.847 182.981 73.3521C183.608 73.8571 184.456 74.1096 185.526 74.1096C186.398 74.1096 187.093 73.9413 187.612 73.6046C188.132 73.2528 188.393 72.7708 188.393 72.1585C188.393 71.6846 188.247 71.3328 187.957 71.1033C187.667 70.8578 187.322 70.6905 186.924 70.5983C186.527 70.5061 185.908 70.4069 185.067 70.2997C183.676 70.1313 182.552 69.8106 181.696 69.3357C180.84 68.8466 180.412 68.0129 180.412 66.8344C180.412 65.7181 180.833 64.8382 181.673 64.1959C182.529 63.5385 183.661 63.2088 185.067 63.2088C186.52 63.2088 187.69 63.5686 188.576 64.2881C189.478 64.9916 189.929 65.9395 189.929 67.133H188.071C188.056 66.4296 187.774 65.8714 187.223 65.4575C186.672 65.0296 185.946 64.8152 185.045 64.8152C184.204 64.8152 183.524 64.9916 183.004 65.3433C182.483 65.695 182.224 66.169 182.224 66.7663C182.224 67.2092 182.361 67.5539 182.636 67.7984C182.927 68.0279 183.271 68.1882 183.669 68.2804C184.081 68.3566 184.692 68.4408 185.503 68.533C186.405 68.6402 187.185 68.8085 187.842 69.038C188.515 69.2515 189.073 69.6112 189.516 70.1163C189.96 70.6063 190.181 71.2787 190.181 72.1355C190.181 73.2679 189.761 74.1477 188.92 74.775C188.094 75.4023 186.941 75.715 185.457 75.715ZM197.403 75.6929C196.44 75.6929 195.668 75.3793 195.087 74.752C194.506 74.1247 194.216 73.2979 194.216 72.2738V65.183H192.335V63.6678H194.216L194.651 59.928H196.142L196.118 63.6678H199.1V65.183H196.118V72.2046C196.118 72.7548 196.28 73.2067 196.6 73.5585C196.922 73.9102 197.357 74.0866 197.907 74.0866C198.091 74.0866 198.313 74.0635 198.572 74.0174C198.832 73.9713 199.07 73.9182 199.283 73.8571V75.3943C198.687 75.5927 198.06 75.6929 197.403 75.6929ZM205.398 75.6238C204.144 75.6238 203.134 75.3252 202.37 74.7289C201.621 74.1166 201.247 73.314 201.247 72.3189C201.247 71.2787 201.69 70.4069 202.577 69.7034C203.464 68.9999 204.748 68.556 206.429 68.3726L209.64 67.9818V67.5229C209.64 66.7432 209.372 66.1239 208.837 65.665C208.303 65.19 207.561 64.9535 206.613 64.9535C205.726 64.9535 205.023 65.1599 204.503 65.5728C203.984 65.9706 203.731 66.5288 203.746 67.2483H201.821C201.821 66.0237 202.256 65.0527 203.127 64.3332C203.999 63.5997 205.168 63.2319 206.635 63.2319C208.134 63.2319 209.326 63.6297 210.213 64.4254C211.1 65.206 211.543 66.2532 211.543 67.569V75.256H209.64V73.5585H209.433C208.577 74.9354 207.232 75.6238 205.398 75.6238ZM205.673 74.0405C206.452 74.0405 207.14 73.8952 207.737 73.6046C208.333 73.314 208.799 72.9081 209.136 72.388C209.471 71.8679 209.64 71.2867 209.64 70.6444V69.6112L206.429 69.979C205.298 70.1163 204.465 70.3919 203.93 70.8047C203.41 71.2025 203.15 71.6916 203.15 72.2738C203.15 72.8239 203.372 73.2599 203.815 73.5815C204.274 73.8872 204.893 74.0405 205.673 74.0405ZM219.036 75.6929C218.072 75.6929 217.3 75.3793 216.72 74.752C216.139 74.1247 215.848 73.2979 215.848 72.2738V65.183H213.968V63.6678H215.848L216.284 59.928H217.775L217.752 63.6678H220.733V65.183H217.752V72.2046C217.752 72.7548 217.912 73.2067 218.234 73.5585C218.554 73.9102 218.99 74.0866 219.541 74.0866C219.724 74.0866 219.945 74.0635 220.206 74.0174C220.465 73.9713 220.702 73.9182 220.917 73.8571V75.3943C220.32 75.5927 219.693 75.6929 219.036 75.6929ZM234.139 75.256H232.236V73.6727H232.007C231.61 74.3 231.09 74.7901 230.447 75.1418C229.82 75.4935 229.132 75.6699 228.383 75.6699C227.421 75.6699 226.571 75.4554 225.838 75.0276C225.104 74.5836 224.539 73.9794 224.141 73.2138C223.759 72.4341 223.568 71.5543 223.568 70.5752V63.6678H225.471V70.5752C225.471 71.5854 225.746 72.4031 226.297 73.0304C226.862 73.6427 227.634 73.9483 228.612 73.9483C229.255 73.9483 229.851 73.796 230.402 73.4893C230.967 73.1837 231.41 72.7628 231.732 72.2277C232.068 71.6765 232.236 71.0723 232.236 70.4149V63.6678H234.139V75.256ZM242.429 75.715C240.763 75.715 239.471 75.3332 238.553 74.5686C237.636 73.788 237.177 72.7097 237.177 71.3328H239.012C239.027 72.1736 239.341 72.847 239.951 73.3521C240.578 73.8571 241.427 74.1096 242.497 74.1096C243.368 74.1096 244.064 73.9413 244.584 73.6046C245.104 73.2528 245.364 72.7708 245.364 72.1585C245.364 71.6846 245.219 71.3328 244.928 71.1033C244.638 70.8578 244.294 70.6905 243.896 70.5983C243.498 70.5061 242.88 70.4069 242.038 70.2997C240.647 70.1313 239.524 69.8106 238.668 69.3357C237.811 68.8466 237.384 68.0129 237.384 66.8344C237.384 65.7181 237.804 64.8382 238.645 64.1959C239.501 63.5385 240.632 63.2088 242.038 63.2088C243.491 63.2088 244.66 63.5686 245.547 64.2881C246.45 64.9916 246.9 65.9395 246.9 67.133H245.043C245.028 66.4296 244.744 65.8714 244.194 65.4575C243.644 65.0296 242.918 64.8152 242.015 64.8152C241.175 64.8152 240.494 64.9916 239.974 65.3433C239.455 65.695 239.195 66.169 239.195 66.7663C239.195 67.2092 239.333 67.5539 239.608 67.7984C239.898 68.0279 240.243 68.1882 240.639 68.2804C241.053 68.3566 241.664 68.4408 242.474 68.533C243.376 68.6402 244.156 68.8085 244.813 69.038C245.486 69.2515 246.044 69.6112 246.488 70.1163C246.931 70.6063 247.153 71.2787 247.153 72.1355C247.153 73.2679 246.732 74.1477 245.891 74.775C245.066 75.4023 243.911 75.715 242.429 75.715ZM255.819 75.715C254.626 75.715 253.557 75.4404 252.608 74.8893C251.661 74.3391 250.919 73.5815 250.384 72.6175C249.849 71.6385 249.581 70.5372 249.581 69.3136C249.581 68.1502 249.841 67.11 250.361 66.1921C250.896 65.2591 251.63 64.5326 252.562 64.0125C253.496 63.4764 254.55 63.2088 255.727 63.2088C256.889 63.2088 257.929 63.4764 258.846 64.0125C259.778 64.5326 260.504 65.2591 261.024 66.1921C261.544 67.11 261.804 68.1582 261.804 69.3357C261.804 69.6724 261.796 69.9249 261.781 70.0932H251.531C251.668 71.2717 252.127 72.2197 252.907 72.9392C253.702 73.6427 254.687 73.9944 255.865 73.9944C256.721 73.9944 257.5 73.796 258.204 73.3981C258.922 72.9843 259.465 72.4341 259.831 71.7457L261.415 72.5484C260.94 73.5435 260.207 74.3231 259.213 74.8893C258.234 75.4404 257.103 75.715 255.819 75.715ZM259.809 68.4177C259.641 67.3625 259.175 66.5208 258.41 65.8945C257.661 65.2511 256.736 64.9304 255.636 64.9304C254.565 64.9304 253.656 65.2511 252.907 65.8945C252.173 66.5368 251.722 67.3776 251.554 68.4177H259.809ZM269.481 75.715C267.815 75.715 266.523 75.3332 265.606 74.5686C264.688 73.788 264.23 72.7097 264.23 71.3328H266.064C266.079 72.1736 266.393 72.847 267.005 73.3521C267.631 73.8571 268.48 74.1096 269.549 74.1096C270.421 74.1096 271.116 73.9413 271.636 73.6046C272.156 73.2528 272.416 72.7708 272.416 72.1585C272.416 71.6846 272.271 71.3328 271.981 71.1033C271.69 70.8578 271.346 70.6905 270.948 70.5983C270.551 70.5061 269.932 70.4069 269.092 70.2997C267.7 70.1313 266.576 69.8106 265.72 69.3357C264.864 68.8466 264.436 68.0129 264.436 66.8344C264.436 65.7181 264.857 64.8382 265.697 64.1959C266.553 63.5385 267.685 63.2088 269.092 63.2088C270.544 63.2088 271.713 63.5686 272.599 64.2881C273.502 64.9916 273.952 65.9395 273.952 67.133H272.095C272.08 66.4296 271.797 65.8714 271.247 65.4575C270.696 65.0296 269.97 64.8152 269.068 64.8152C268.227 64.8152 267.547 64.9916 267.028 65.3433C266.507 65.695 266.248 66.169 266.248 66.7663C266.248 67.2092 266.385 67.5539 266.66 67.7984C266.951 68.0279 267.295 68.1882 267.693 68.2804C268.105 68.3566 268.716 68.4408 269.527 68.533C270.428 68.6402 271.209 68.8085 271.865 69.038C272.538 69.2515 273.096 69.6112 273.54 70.1163C273.983 70.6063 274.205 71.2787 274.205 72.1355C274.205 73.2679 273.784 74.1477 272.944 74.775C272.118 75.4023 270.964 75.715 269.481 75.715Z" fill="black"/>
</g>
<defs>
<filter id="filter0_d_0_274" x="0.0574341" y="0.497864" width="459.025" height="340.093" filterUnits="userSpaceOnUse" color-interpolation-filters="sRGB">
<feFlood flood-opacity="0" result="BackgroundImageFix"/>
<feColorMatrix in="SourceAlpha" type="matrix" values="0 0 0 0 0 0 0 0 0 0 0 0 0 0 0 0 0 0 127 0" result="hardAlpha"/>
<feOffset/>
<feGaussianBlur stdDeviation="12"/>
<feColorMatrix type="matrix" values="0 0 0 0 0 0 0 0 0 0 0 0 0 0 0 0 0 0 0.06 0"/>
<feBlend mode="normal" in2="BackgroundImageFix" result="effect1_dropShadow_0_274"/>
<feBlend mode="normal" in="SourceGraphic" in2="effect1_dropShadow_0_274" result="shape"/>
</filter>
<filter id="filter1_d_0_274" x="140.386" y="125.001" width="32.272" height="29.2938" filterUnits="userSpaceOnUse" color-interpolation-filters="sRGB">
<feFlood flood-opacity="0" result="BackgroundImageFix"/>
<feColorMatrix in="SourceAlpha" type="matrix" values="0 0 0 0 0 0 0 0 0 0 0 0 0 0 0 0 0 0 127 0" result="hardAlpha"/>
<feOffset dy="4"/>
<feGaussianBlur stdDeviation="4"/>
<feColorMatrix type="matrix" values="0 0 0 0 0.975 0 0 0 0 0.710938 0 0 0 0 0.868666 0 0 0 1 0"/>
<feBlend mode="normal" in2="BackgroundImageFix" result="effect1_dropShadow_0_274"/>
<feBlend mode="normal" in="SourceGraphic" in2="effect1_dropShadow_0_274" result="shape"/>
</filter>
<filter id="filter2_d_0_274" x="211.971" y="125.001" width="32.273" height="38.1954" filterUnits="userSpaceOnUse" color-interpolation-filters="sRGB">
<feFlood flood-opacity="0" result="BackgroundImageFix"/>
<feColorMatrix in="SourceAlpha" type="matrix" values="0 0 0 0 0 0 0 0 0 0 0 0 0 0 0 0 0 0 127 0" result="hardAlpha"/>
<feOffset dy="4"/>
<feGaussianBlur stdDeviation="4"/>
<feColorMatrix type="matrix" values="0 0 0 0 0.975 0 0 0 0 0.710938 0 0 0 0 0.868666 0 0 0 1 0"/>
<feBlend mode="normal" in2="BackgroundImageFix" result="effect1_dropShadow_0_274"/>
<feBlend mode="normal" in="SourceGraphic" in2="effect1_dropShadow_0_274" result="shape"/>
</filter>
<filter id="filter3_d_0_274" x="283.556" y="125.001" width="32.273" height="26.3185" filterUnits="userSpaceOnUse" color-interpolation-filters="sRGB">
<feFlood flood-opacity="0" result="BackgroundImageFix"/>
<feColorMatrix in="SourceAlpha" type="matrix" values="0 0 0 0 0 0 0 0 0 0 0 0 0 0 0 0 0 0 127 0" result="hardAlpha"/>
<feOffset dy="4"/>
<feGaussianBlur stdDeviation="4"/>
<feColorMatrix type="matrix" values="0 0 0 0 0.975 0 0 0 0 0.710938 0 0 0 0 0.868666 0 0 0 1 0"/>
<feBlend mode="normal" in2="BackgroundImageFix" result="effect1_dropShadow_0_274"/>
<feBlend mode="normal" in="SourceGraphic" in2="effect1_dropShadow_0_274" result="shape"/>
</filter>
<filter id="filter4_d_0_274" x="355.142" y="125.001" width="32.272" height="41.5184" filterUnits="userSpaceOnUse" color-interpolation-filters="sRGB">
<feFlood flood-opacity="0" result="BackgroundImageFix"/>
<feColorMatrix in="SourceAlpha" type="matrix" values="0 0 0 0 0 0 0 0 0 0 0 0 0 0 0 0 0 0 127 0" result="hardAlpha"/>
<feOffset dy="4"/>
<feGaussianBlur stdDeviation="4"/>
<feColorMatrix type="matrix" values="0 0 0 0 0.975 0 0 0 0 0.710938 0 0 0 0 0.868666 0 0 0 1 0"/>
<feBlend mode="normal" in2="BackgroundImageFix" result="effect1_dropShadow_0_274"/>
<feBlend mode="normal" in="SourceGraphic" in2="effect1_dropShadow_0_274" result="shape"/>
</filter>
<filter id="filter5_d_0_274" x="62.8" y="119.001" width="44.273" height="62.9171" filterUnits="userSpaceOnUse" color-interpolation-filters="sRGB">
<feFlood flood-opacity="0" result="BackgroundImageFix"/>
<feColorMatrix in="SourceAlpha" type="matrix" values="0 0 0 0 0 0 0 0 0 0 0 0 0 0 0 0 0 0 127 0" result="hardAlpha"/>
<feOffset dy="4"/>
<feGaussianBlur stdDeviation="7"/>
<feColorMatrix type="matrix" values="0 0 0 0 0.516667 0 0 0 0 0.769574 0 0 0 0 1 0 0 0 0.46 0"/>
<feBlend mode="normal" in2="BackgroundImageFix" result="effect1_dropShadow_0_274"/>
<feBlend mode="normal" in="SourceGraphic" in2="effect1_dropShadow_0_274" result="shape"/>
</filter>
<filter id="filter6_d_0_274" x="134.386" y="132.295" width="44.272" height="49.6242" filterUnits="userSpaceOnUse" color-interpolation-filters="sRGB">
<feFlood flood-opacity="0" result="BackgroundImageFix"/>
<feColorMatrix in="SourceAlpha" type="matrix" values="0 0 0 0 0 0 0 0 0 0 0 0 0 0 0 0 0 0 127 0" result="hardAlpha"/>
<feOffset dy="4"/>
<feGaussianBlur stdDeviation="7"/>
<feColorMatrix type="matrix" values="0 0 0 0 0.516667 0 0 0 0 0.769574 0 0 0 0 1 0 0 0 0.46 0"/>
<feBlend mode="normal" in2="BackgroundImageFix" result="effect1_dropShadow_0_274"/>
<feBlend mode="normal" in="SourceGraphic" in2="effect1_dropShadow_0_274" result="shape"/>
</filter>
<filter id="filter7_d_0_274" x="205.971" y="141.197" width="44.273" height="68.0096" filterUnits="userSpaceOnUse" color-interpolation-filters="sRGB">
<feFlood flood-opacity="0" result="BackgroundImageFix"/>
<feColorMatrix in="SourceAlpha" type="matrix" values="0 0 0 0 0 0 0 0 0 0 0 0 0 0 0 0 0 0 127 0" result="hardAlpha"/>
<feOffset dy="4"/>
<feGaussianBlur stdDeviation="7"/>
<feColorMatrix type="matrix" values="0 0 0 0 0.516667 0 0 0 0 0.769574 0 0 0 0 1 0 0 0 0.46 0"/>
<feBlend mode="normal" in2="BackgroundImageFix" result="effect1_dropShadow_0_274"/>
<feBlend mode="normal" in="SourceGraphic" in2="effect1_dropShadow_0_274" result="shape"/>
</filter>
<filter id="filter8_d_0_274" x="277.556" y="129.32" width="44.273" height="119.09" filterUnits="userSpaceOnUse" color-interpolation-filters="sRGB">
<feFlood flood-opacity="0" result="BackgroundImageFix"/>
<feColorMatrix in="SourceAlpha" type="matrix" values="0 0 0 0 0 0 0 0 0 0 0 0 0 0 0 0 0 0 127 0" result="hardAlpha"/>
<feOffset dy="4"/>
<feGaussianBlur stdDeviation="7"/>
<feColorMatrix type="matrix" values="0 0 0 0 0.516667 0 0 0 0 0.769574 0 0 0 0 1 0 0 0 0.46 0"/>
<feBlend mode="normal" in2="BackgroundImageFix" result="effect1_dropShadow_0_274"/>
<feBlend mode="normal" in="SourceGraphic" in2="effect1_dropShadow_0_274" result="shape"/>
</filter>
<filter id="filter9_d_0_274" x="349.142" y="144.52" width="44.272" height="37.3987" filterUnits="userSpaceOnUse" color-interpolation-filters="sRGB">
<feFlood flood-opacity="0" result="BackgroundImageFix"/>
<feColorMatrix in="SourceAlpha" type="matrix" values="0 0 0 0 0 0 0 0 0 0 0 0 0 0 0 0 0 0 127 0" result="hardAlpha"/>
<feOffset dy="4"/>
<feGaussianBlur stdDeviation="7"/>
<feColorMatrix type="matrix" values="0 0 0 0 0.516667 0 0 0 0 0.769574 0 0 0 0 1 0 0 0 0.46 0"/>
<feBlend mode="normal" in2="BackgroundImageFix" result="effect1_dropShadow_0_274"/>
<feBlend mode="normal" in="SourceGraphic" in2="effect1_dropShadow_0_274" result="shape"/>
</filter>
<filter id="filter10_d_0_274" x="62.8" y="153.919" width="44.273" height="60.079" filterUnits="userSpaceOnUse" color-interpolation-filters="sRGB">
<feFlood flood-opacity="0" result="BackgroundImageFix"/>
<feColorMatrix in="SourceAlpha" type="matrix" values="0 0 0 0 0 0 0 0 0 0 0 0 0 0 0 0 0 0 127 0" result="hardAlpha"/>
<feOffset dy="4"/>
<feGaussianBlur stdDeviation="7"/>
<feColorMatrix type="matrix" values="0 0 0 0 1 0 0 0 0 0.780392 0 0 0 0 0 0 0 0 0.6 0"/>
<feBlend mode="normal" in2="BackgroundImageFix" result="effect1_dropShadow_0_274"/>
<feBlend mode="normal" in="SourceGraphic" in2="effect1_dropShadow_0_274" result="shape"/>
</filter>
<filter id="filter11_d_0_274" x="134.386" y="153.919" width="44.272" height="40.1313" filterUnits="userSpaceOnUse" color-interpolation-filters="sRGB">
<feFlood flood-opacity="0" result="BackgroundImageFix"/>
<feColorMatrix in="SourceAlpha" type="matrix" values="0 0 0 0 0 0 0 0 0 0 0 0 0 0 0 0 0 0 127 0" result="hardAlpha"/>
<feOffset dy="4"/>
<feGaussianBlur stdDeviation="7"/>
<feColorMatrix type="matrix" values="0 0 0 0 1 0 0 0 0 0.780392 0 0 0 0 0 0 0 0 0.6 0"/>
<feBlend mode="normal" in2="BackgroundImageFix" result="effect1_dropShadow_0_274"/>
<feBlend mode="normal" in="SourceGraphic" in2="effect1_dropShadow_0_274" result="shape"/>
</filter>
<filter id="filter12_d_0_274" x="205.971" y="181.207" width="44.273" height="67.2031" filterUnits="userSpaceOnUse" color-interpolation-filters="sRGB">
<feFlood flood-opacity="0" result="BackgroundImageFix"/>
<feColorMatrix in="SourceAlpha" type="matrix" values="0 0 0 0 0 0 0 0 0 0 0 0 0 0 0 0 0 0 127 0" result="hardAlpha"/>
<feOffset dy="4"/>
<feGaussianBlur stdDeviation="7"/>
<feColorMatrix type="matrix" values="0 0 0 0 1 0 0 0 0 0.780392 0 0 0 0 0 0 0 0 0.6 0"/>
<feBlend mode="normal" in2="BackgroundImageFix" result="effect1_dropShadow_0_274"/>
<feBlend mode="normal" in="SourceGraphic" in2="effect1_dropShadow_0_274" result="shape"/>
</filter>
<filter id="filter13_d_0_274" x="277.556" y="220.41" width="44.273" height="41.9863" filterUnits="userSpaceOnUse" color-interpolation-filters="sRGB">
<feFlood flood-opacity="0" result="BackgroundImageFix"/>
<feColorMatrix in="SourceAlpha" type="matrix" values="0 0 0 0 0 0 0 0 0 0 0 0 0 0 0 0 0 0 127 0" result="hardAlpha"/>
<feOffset dy="4"/>
<feGaussianBlur stdDeviation="7"/>
<feColorMatrix type="matrix" values="0 0 0 0 1 0 0 0 0 0.780392 0 0 0 0 0 0 0 0 0.6 0"/>
<feBlend mode="normal" in2="BackgroundImageFix" result="effect1_dropShadow_0_274"/>
<feBlend mode="normal" in="SourceGraphic" in2="effect1_dropShadow_0_274" result="shape"/>
</filter>
<filter id="filter14_d_0_274" x="349.142" y="153.919" width="44.272" height="50.4299" filterUnits="userSpaceOnUse" color-interpolation-filters="sRGB">
<feFlood flood-opacity="0" result="BackgroundImageFix"/>
<feColorMatrix in="SourceAlpha" type="matrix" values="0 0 0 0 0 0 0 0 0 0 0 0 0 0 0 0 0 0 127 0" result="hardAlpha"/>
<feOffset dy="4"/>
<feGaussianBlur stdDeviation="7"/>
<feColorMatrix type="matrix" values="0 0 0 0 1 0 0 0 0 0.780392 0 0 0 0 0 0 0 0 0.6 0"/>
<feBlend mode="normal" in2="BackgroundImageFix" result="effect1_dropShadow_0_274"/>
<feBlend mode="normal" in="SourceGraphic" in2="effect1_dropShadow_0_274" result="shape"/>
</filter>
<filter id="filter15_d_0_274" x="62.8" y="185.998" width="44.273" height="94.3979" filterUnits="userSpaceOnUse" color-interpolation-filters="sRGB">
<feFlood flood-opacity="0" result="BackgroundImageFix"/>
<feColorMatrix in="SourceAlpha" type="matrix" values="0 0 0 0 0 0 0 0 0 0 0 0 0 0 0 0 0 0 127 0" result="hardAlpha"/>
<feOffset dy="4"/>
<feGaussianBlur stdDeviation="7"/>
<feColorMatrix type="matrix" values="0 0 0 0 0.792157 0 0 0 0 1 0 0 0 0 0.203922 0 0 0 0.6 0"/>
<feBlend mode="normal" in2="BackgroundImageFix" result="effect1_dropShadow_0_274"/>
<feBlend mode="normal" in="SourceGraphic" in2="effect1_dropShadow_0_274" result="shape"/>
</filter>
<filter id="filter16_d_0_274" x="134.386" y="166.05" width="44.272" height="114.346" filterUnits="userSpaceOnUse" color-interpolation-filters="sRGB">
<feFlood flood-opacity="0" result="BackgroundImageFix"/>
<feColorMatrix in="SourceAlpha" type="matrix" values="0 0 0 0 0 0 0 0 0 0 0 0 0 0 0 0 0 0 127 0" result="hardAlpha"/>
<feOffset dy="4"/>
<feGaussianBlur stdDeviation="7"/>
<feColorMatrix type="matrix" values="0 0 0 0 0.792157 0 0 0 0 1 0 0 0 0 0.203922 0 0 0 0.6 0"/>
<feBlend mode="normal" in2="BackgroundImageFix" result="effect1_dropShadow_0_274"/>
<feBlend mode="normal" in="SourceGraphic" in2="effect1_dropShadow_0_274" result="shape"/>
</filter>
<filter id="filter17_d_0_274" x="205.971" y="220.41" width="44.273" height="62.8299" filterUnits="userSpaceOnUse" color-interpolation-filters="sRGB">
<feFlood flood-opacity="0" result="BackgroundImageFix"/>
<feColorMatrix in="SourceAlpha" type="matrix" values="0 0 0 0 0 0 0 0 0 0 0 0 0 0 0 0 0 0 127 0" result="hardAlpha"/>
<feOffset dy="4"/>
<feGaussianBlur stdDeviation="7"/>
<feColorMatrix type="matrix" values="0 0 0 0 0.792157 0 0 0 0 1 0 0 0 0 0.203922 0 0 0 0.6 0"/>
<feBlend mode="normal" in2="BackgroundImageFix" result="effect1_dropShadow_0_274"/>
<feBlend mode="normal" in="SourceGraphic" in2="effect1_dropShadow_0_274" result="shape"/>
</filter>
<filter id="filter18_d_0_274" x="277.556" y="234.396" width="44.273" height="46.0026" filterUnits="userSpaceOnUse" color-interpolation-filters="sRGB">
<feFlood flood-opacity="0" result="BackgroundImageFix"/>
<feColorMatrix in="SourceAlpha" type="matrix" values="0 0 0 0 0 0 0 0 0 0 0 0 0 0 0 0 0 0 127 0" result="hardAlpha"/>
<feOffset dy="4"/>
<feGaussianBlur stdDeviation="7"/>
<feColorMatrix type="matrix" values="0 0 0 0 0.792157 0 0 0 0 1 0 0 0 0 0.203922 0 0 0 0.6 0"/>
<feBlend mode="normal" in2="BackgroundImageFix" result="effect1_dropShadow_0_274"/>
<feBlend mode="normal" in="SourceGraphic" in2="effect1_dropShadow_0_274" result="shape"/>
</filter>
<filter id="filter19_d_0_274" x="349.142" y="176.348" width="44.272" height="104.047" filterUnits="userSpaceOnUse" color-interpolation-filters="sRGB">
<feFlood flood-opacity="0" result="BackgroundImageFix"/>
<feColorMatrix in="SourceAlpha" type="matrix" values="0 0 0 0 0 0 0 0 0 0 0 0 0 0 0 0 0 0 127 0" result="hardAlpha"/>
<feOffset dy="4"/>
<feGaussianBlur stdDeviation="7"/>
<feColorMatrix type="matrix" values="0 0 0 0 0.792157 0 0 0 0 1 0 0 0 0 0.203922 0 0 0 0.6 0"/>
<feBlend mode="normal" in2="BackgroundImageFix" result="effect1_dropShadow_0_274"/>
<feBlend mode="normal" in="SourceGraphic" in2="effect1_dropShadow_0_274" result="shape"/>
</filter>
</defs>
</svg>
